# MagicaVoxel @ Ephtracy

# group
o 

# material
mtllib default_zombie.mtl
usemtl palette

# normals
vn -1 0 0
vn 1 0 0
vn 0 0 1
vn 0 0 -1
vn 0 -1 0
vn 0 1 0

# texcoords
vt 0.791016 0.5
vt 0.857422 0.5
vt 0.943359 0.5
vt 0.978516 0.5
vt 0.990234 0.5
vt 0.994141 0.5

# verts
v -0.9 1.3 0.5
v -0.9 1.3 0.1
v -0.9 1.3 -0.4
v -0.9 1.4 0.5
v -0.9 1.4 0.4
v -0.9 1.4 -0.4
v -0.9 1.4 -0.5
v -0.9 1.5 0.6
v -0.9 1.5 0.5
v -0.9 1.6 0.6
v -0.9 1.6 0.4
v -0.9 1.6 0.1
v -0.9 1.6 -0.5
v -0.8 1.5 -0.5
v -0.8 1.5 -0.6
v -0.8 1.6 0.1
v -0.8 1.6 -0.5
v -0.8 1.7 0.1
v -0.8 1.7 -0.6
v -0.7 1.3 0.6
v -0.7 1.3 0.5
v -0.7 1.4 0.6
v -0.7 1.4 0.5
v -0.6 0 5.96046e-08
v -0.6 0 -0.7
v -0.6 0.1 5.96046e-08
v -0.6 0.1 -0.1
v -0.6 0.2 -0.1
v -0.6 0.2 -0.7
v -0.6 0.9 -0.1
v -0.6 0.9 -0.7
v -0.6 1.3 -0.1
v -0.6 1.3 -0.4
v -0.6 1.4 -0.4
v -0.6 1.4 -0.5
v -0.6 1.5 -0.5
v -0.6 1.5 -0.6
v -0.6 1.7 -0.6
v -0.6 1.7 -0.7
v -0.5 1.7 -0.1
v -0.5 1.7 -0.7
v -0.5 1.8 -0.1
v -0.5 1.8 -0.7
v -0.4 1.8 -0.1
v -0.4 1.8 -0.7
v -0.4 1.9 -0.1
v -0.4 1.9 -0.7
v -0.3 1.9 -0.2
v -0.3 1.9 -0.6
v -0.3 2 -0.2
v -0.3 2 -0.6
v -0.3 2.1 -0.1
v -0.3 2.1 -0.7
v -0.3 2.7 -0.1
v -0.3 2.7 -0.7
v -0.2 2 -0.2
v -0.2 2 -0.6
v -0.2 2.1 -0.2
v -0.2 2.1 -0.6
v 0.1 0 5.96046e-08
v 0.1 0 -0.7
v 0.1 0.1 5.96046e-08
v 0.1 0.1 -0.1
v 0.1 0.2 -0.1
v 0.1 0.2 -0.7
v 0.1 0.8 -0.1
v 0.1 0.8 -0.7
v 0.6 1.3 0.6
v 0.6 1.3 0.2
v 0.6 1.3 0.1
v 0.6 1.3 -0.1
v 0.6 1.4 0.6
v 0.6 1.4 0.5
v 0.6 1.4 0.2
v 0.6 1.4 0.1
v 0.6 1.5 0.6
v 0.6 1.5 0.5
v 0.6 1.6 0.6
v 0.6 1.6 0.1
v 0.6 1.7 0.1
v 0.6 1.7 -0.1
v -0.6 1.3 0.6
v -0.6 1.3 0.5
v -0.6 1.3 0.1
v -0.6 1.3 -0.1
v -0.6 1.4 0.6
v -0.6 1.4 0.5
v -0.6 1.5 0.6
v -0.6 1.5 0.5
v -0.6 1.6 0.6
v -0.6 1.6 0.1
v -0.6 1.7 0.1
v -0.6 1.7 -0.1
v -0.1 0 5.96046e-08
v -0.1 0 -0.7
v -0.1 0.1 5.96046e-08
v -0.1 0.1 -0.1
v -0.1 0.2 -0.1
v -0.1 0.2 -0.7
v -0.1 0.8 -0.1
v -0.1 0.8 -0.7
v 0.2 2 -0.2
v 0.2 2 -0.3
v 0.2 2 -0.6
v 0.2 2.1 -0.2
v 0.2 2.1 -0.3
v 0.2 2.1 -0.6
v 0.3 1.9 -0.2
v 0.3 1.9 -0.6
v 0.3 2 -0.2
v 0.3 2 -0.6
v 0.3 2.1 -0.1
v 0.3 2.1 -0.7
v 0.3 2.7 -0.1
v 0.3 2.7 -0.7
v 0.4 1.8 -0.1
v 0.4 1.8 -0.7
v 0.4 1.9 -0.1
v 0.4 1.9 -0.7
v 0.5 1.7 -0.1
v 0.5 1.7 -0.7
v 0.5 1.8 -0.1
v 0.5 1.8 -0.7
v 0.6 0 5.96046e-08
v 0.6 0 -0.7
v 0.6 0.1 5.96046e-08
v 0.6 0.1 -0.1
v 0.6 0.2 -0.1
v 0.6 0.2 -0.7
v 0.6 0.4 -0.1
v 0.6 0.4 -0.2
v 0.6 0.7 -0.1
v 0.6 0.7 -0.2
v 0.6 0.7 -0.6
v 0.6 0.7 -0.7
v 0.6 0.9 -0.1
v 0.6 0.9 -0.6
v 0.6 1 -0.4
v 0.6 1 -0.5
v 0.6 1.1 -0.5
v 0.6 1.1 -0.6
v 0.6 1.2 -0.4
v 0.6 1.2 -0.7
v 0.6 1.3 -0.1
v 0.6 1.3 -0.4
v 0.6 1.4 -0.4
v 0.6 1.4 -0.5
v 0.6 1.5 -0.5
v 0.6 1.5 -0.6
v 0.6 1.7 -0.6
v 0.6 1.7 -0.7
v 0.7 1.3 0.6
v 0.7 1.3 0.5
v 0.7 1.4 0.6
v 0.7 1.4 0.5
v 0.8 1.5 -0.5
v 0.8 1.5 -0.6
v 0.8 1.6 0.1
v 0.8 1.6 -0.5
v 0.8 1.7 0.1
v 0.8 1.7 -0.6
v 0.9 1.3 0.5
v 0.9 1.3 0.3
v 0.9 1.3 5.96046e-08
v 0.9 1.3 -0.4
v 0.9 1.4 0.3
v 0.9 1.4 0.1
v 0.9 1.4 5.96046e-08
v 0.9 1.4 -0.4
v 0.9 1.4 -0.5
v 0.9 1.5 0.6
v 0.9 1.5 0.5
v 0.9 1.6 0.6
v 0.9 1.6 0.1
v 0.9 1.6 -0.5
v -0.9 1.5 0.6
v -0.9 1.6 0.6
v -0.8 1.5 0.6
v -0.8 1.6 0.6
v -0.7 1.3 0.6
v -0.7 1.4 0.6
v -0.6 1.3 0.6
v -0.6 1.4 0.6
v -0.6 1.5 0.6
v -0.6 1.6 0.6
v 0.6 1.3 0.6
v 0.6 1.4 0.6
v 0.6 1.5 0.6
v 0.6 1.6 0.6
v 0.7 1.3 0.6
v 0.7 1.4 0.6
v 0.9 1.5 0.6
v 0.9 1.6 0.6
v -0.9 1.3 0.5
v -0.9 1.4 0.5
v -0.9 1.5 0.5
v -0.8 1.4 0.5
v -0.8 1.5 0.5
v -0.7 1.3 0.5
v -0.7 1.4 0.5
v -0.6 1.4 0.5
v -0.6 1.5 0.5
v 0.6 1.4 0.5
v 0.6 1.5 0.5
v 0.7 1.3 0.5
v 0.7 1.4 0.5
v 0.9 1.3 0.5
v 0.9 1.5 0.5
v -0.8 1.6 0.1
v -0.8 1.7 0.1
v -0.6 1.6 0.1
v -0.6 1.7 0.1
v 0.6 1.6 0.1
v 0.6 1.7 0.1
v 0.8 1.6 0.1
v 0.8 1.7 0.1
v -0.6 0 5.96046e-08
v -0.6 0.1 5.96046e-08
v -0.1 0 5.96046e-08
v -0.1 0.1 5.96046e-08
v 0.1 0 5.96046e-08
v 0.1 0.1 5.96046e-08
v 0.6 0 5.96046e-08
v 0.6 0.1 5.96046e-08
v -0.6 0.1 -0.1
v -0.6 0.2 -0.1
v -0.6 0.9 -0.1
v -0.6 1.3 -0.1
v -0.6 1.7 -0.1
v -0.5 0.9 -0.1
v -0.5 1 -0.1
v -0.5 1.1 -0.1
v -0.5 1.4 -0.1
v -0.5 1.7 -0.1
v -0.5 1.8 -0.1
v -0.4 0.9 -0.1
v -0.4 1 -0.1
v -0.4 1.1 -0.1
v -0.4 1.3 -0.1
v -0.4 1.4 -0.1
v -0.4 1.5 -0.1
v -0.4 1.8 -0.1
v -0.4 1.9 -0.1
v -0.3 1 -0.1
v -0.3 1.1 -0.1
v -0.3 1.2 -0.1
v -0.3 1.3 -0.1
v -0.3 1.4 -0.1
v -0.3 1.5 -0.1
v -0.3 2.1 -0.1
v -0.3 2.7 -0.1
v -0.2 1.1 -0.1
v -0.2 1.2 -0.1
v -0.2 1.3 -0.1
v -0.2 1.4 -0.1
v -0.2 2.2 -0.1
v -0.2 2.3 -0.1
v -0.2 2.4 -0.1
v -0.2 2.5 -0.1
v -0.1 0.1 -0.1
v -0.1 0.2 -0.1
v -0.1 0.8 -0.1
v -0.1 2.4 -0.1
v -0.1 2.5 -0.1
v 0.1 0.1 -0.1
v 0.1 0.2 -0.1
v 0.1 0.8 -0.1
v 0.1 1.8 -0.1
v 0.1 1.9 -0.1
v 0.1 2.1 -0.1
v 0.1 2.2 -0.1
v 0.1 2.4 -0.1
v 0.1 2.5 -0.1
v 0.2 0.5 -0.1
v 0.2 0.6 -0.1
v 0.2 1.7 -0.1
v 0.2 1.8 -0.1
v 0.2 2.1 -0.1
v 0.2 2.3 -0.1
v 0.2 2.4 -0.1
v 0.2 2.5 -0.1
v 0.3 0.5 -0.1
v 0.3 0.6 -0.1
v 0.3 0.7 -0.1
v 0.3 1.7 -0.1
v 0.3 1.9 -0.1
v 0.3 2.1 -0.1
v 0.3 2.7 -0.1
v 0.4 0.3 -0.1
v 0.4 0.6 -0.1
v 0.4 1.8 -0.1
v 0.4 1.9 -0.1
v 0.5 0.3 -0.1
v 0.5 0.4 -0.1
v 0.5 1.7 -0.1
v 0.5 1.8 -0.1
v 0.6 0.1 -0.1
v 0.6 0.2 -0.1
v 0.6 0.4 -0.1
v 0.6 0.7 -0.1
v 0.6 0.9 -0.1
v 0.6 1.3 -0.1
v 0.6 1.7 -0.1
v -0.3 1.9 -0.2
v -0.3 2 -0.2
v -0.2 2 -0.2
v -0.2 2.1 -0.2
v 0.1 1.9 -0.2
v 0.1 2 -0.2
v 0.1 2.1 -0.2
v 0.2 1.9 -0.2
v 0.2 2 -0.2
v 0.2 2.1 -0.2
v 0.3 1.9 -0.2
v 0.3 2 -0.2
v -0.9 1.3 -0.4
v -0.9 1.4 -0.4
v -0.6 1.3 -0.4
v -0.6 1.4 -0.4
v 0.6 1.3 -0.4
v 0.6 1.4 -0.4
v 0.9 1.3 -0.4
v 0.9 1.4 -0.4
v -0.9 1.4 -0.5
v -0.9 1.6 -0.5
v -0.8 1.5 -0.5
v -0.8 1.6 -0.5
v -0.6 1.4 -0.5
v -0.6 1.5 -0.5
v 0.6 1.4 -0.5
v 0.6 1.5 -0.5
v 0.8 1.5 -0.5
v 0.8 1.6 -0.5
v 0.9 1.4 -0.5
v 0.9 1.6 -0.5
v -0.8 1.5 -0.6
v -0.8 1.7 -0.6
v -0.6 1.5 -0.6
v -0.6 1.7 -0.6
v -0.3 1.9 -0.6
v -0.3 2 -0.6
v -0.2 2 -0.6
v -0.2 2.1 -0.6
v 0.2 2 -0.6
v 0.2 2.1 -0.6
v 0.3 1.9 -0.6
v 0.3 2 -0.6
v 0.6 1.5 -0.6
v 0.6 1.7 -0.6
v 0.8 1.5 -0.6
v 0.8 1.7 -0.6
v -0.6 0 -0.7
v -0.6 0.2 -0.7
v -0.6 0.9 -0.7
v -0.6 1.7 -0.7
v -0.5 1.7 -0.7
v -0.5 1.8 -0.7
v -0.4 1.8 -0.7
v -0.4 1.9 -0.7
v -0.3 2.1 -0.7
v -0.3 2.7 -0.7
v -0.1 0 -0.7
v -0.1 0.2 -0.7
v -0.1 0.8 -0.7
v 0.1 0 -0.7
v 0.1 0.2 -0.7
v 0.1 0.8 -0.7
v 0.3 2.1 -0.7
v 0.3 2.7 -0.7
v 0.4 0.8 -0.7
v 0.4 0.9 -0.7
v 0.4 1 -0.7
v 0.4 1.8 -0.7
v 0.4 1.9 -0.7
v 0.5 0.7 -0.7
v 0.5 0.8 -0.7
v 0.5 1 -0.7
v 0.5 1.2 -0.7
v 0.5 1.7 -0.7
v 0.5 1.8 -0.7
v 0.6 0 -0.7
v 0.6 0.2 -0.7
v 0.6 0.7 -0.7
v 0.6 1.2 -0.7
v 0.6 1.7 -0.7
v -0.6 0 5.96046e-08
v -0.1 0 5.96046e-08
v 0.1 0 5.96046e-08
v 0.6 0 5.96046e-08
v -0.6 0 -0.7
v -0.1 0 -0.7
v 0.1 0 -0.7
v 0.6 0 -0.7
v -0.1 0.8 -0.1
v 0.1 0.8 -0.1
v -0.1 0.8 -0.7
v 0.1 0.8 -0.7
v -0.7 1.3 0.6
v -0.6 1.3 0.6
v 0.6 1.3 0.6
v 0.7 1.3 0.6
v -0.9 1.3 0.5
v -0.7 1.3 0.5
v -0.6 1.3 0.5
v 0.7 1.3 0.5
v 0.9 1.3 0.5
v 0.7 1.3 0.3
v 0.9 1.3 0.3
v 0.6 1.3 0.2
v 0.7 1.3 0.2
v -0.9 1.3 0.1
v -0.6 1.3 0.1
v 0.6 1.3 0.1
v 0.7 1.3 0.1
v 0.8 1.3 5.96046e-08
v 0.9 1.3 5.96046e-08
v -0.6 1.3 -0.1
v 0.6 1.3 -0.1
v 0.7 1.3 -0.1
v 0.8 1.3 -0.1
v -0.9 1.3 -0.4
v -0.6 1.3 -0.4
v 0.6 1.3 -0.4
v 0.9 1.3 -0.4
v -0.9 1.4 -0.4
v -0.6 1.4 -0.4
v 0.6 1.4 -0.4
v 0.9 1.4 -0.4
v -0.9 1.4 -0.5
v -0.6 1.4 -0.5
v 0.6 1.4 -0.5
v 0.9 1.4 -0.5
v -0.9 1.5 0.6
v -0.8 1.5 0.6
v -0.6 1.5 0.6
v 0.6 1.5 0.6
v 0.9 1.5 0.6
v -0.9 1.5 0.5
v -0.8 1.5 0.5
v -0.6 1.5 0.5
v 0.6 1.5 0.5
v 0.9 1.5 0.5
v -0.8 1.5 -0.5
v -0.6 1.5 -0.5
v 0.6 1.5 -0.5
v 0.8 1.5 -0.5
v -0.8 1.5 -0.6
v -0.6 1.5 -0.6
v 0.6 1.5 -0.6
v 0.8 1.5 -0.6
v -0.3 2.1 -0.1
v 0.1 2.1 -0.1
v 0.2 2.1 -0.1
v 0.3 2.1 -0.1
v -0.2 2.1 -0.2
v 0.1 2.1 -0.2
v 0.2 2.1 -0.2
v 0.2 2.1 -0.3
v -0.2 2.1 -0.6
v 0.2 2.1 -0.6
v -0.3 2.1 -0.7
v 0.3 2.1 -0.7
v -0.6 0.1 5.96046e-08
v -0.1 0.1 5.96046e-08
v 0.1 0.1 5.96046e-08
v 0.6 0.1 5.96046e-08
v -0.6 0.1 -0.1
v -0.1 0.1 -0.1
v 0.1 0.1 -0.1
v 0.6 0.1 -0.1
v -0.7 1.4 0.6
v -0.6 1.4 0.6
v 0.6 1.4 0.6
v 0.7 1.4 0.6
v -0.7 1.4 0.5
v -0.6 1.4 0.5
v 0.6 1.4 0.5
v 0.7 1.4 0.5
v -0.9 1.6 0.6
v -0.8 1.6 0.6
v -0.6 1.6 0.6
v 0.6 1.6 0.6
v 0.9 1.6 0.6
v -0.9 1.6 0.4
v -0.8 1.6 0.4
v -0.9 1.6 0.1
v -0.8 1.6 0.1
v -0.6 1.6 0.1
v 0.6 1.6 0.1
v 0.8 1.6 0.1
v 0.9 1.6 0.1
v -0.9 1.6 -0.5
v -0.8 1.6 -0.5
v 0.8 1.6 -0.5
v 0.9 1.6 -0.5
v -0.8 1.7 0.1
v -0.6 1.7 0.1
v 0.6 1.7 0.1
v 0.8 1.7 0.1
v -0.6 1.7 -0.1
v -0.5 1.7 -0.1
v 0.5 1.7 -0.1
v 0.6 1.7 -0.1
v -0.8 1.7 -0.6
v -0.6 1.7 -0.6
v 0.6 1.7 -0.6
v 0.8 1.7 -0.6
v -0.6 1.7 -0.7
v -0.5 1.7 -0.7
v 0.5 1.7 -0.7
v 0.6 1.7 -0.7
v -0.5 1.8 -0.1
v -0.4 1.8 -0.1
v 0.4 1.8 -0.1
v 0.5 1.8 -0.1
v -0.5 1.8 -0.7
v -0.4 1.8 -0.7
v 0.4 1.8 -0.7
v 0.5 1.8 -0.7
v -0.4 1.9 -0.1
v 0.1 1.9 -0.1
v 0.3 1.9 -0.1
v 0.4 1.9 -0.1
v -0.3 1.9 -0.2
v 0.1 1.9 -0.2
v 0.2 1.9 -0.2
v 0.3 1.9 -0.2
v -0.3 1.9 -0.6
v 0.3 1.9 -0.6
v -0.4 1.9 -0.7
v 0.4 1.9 -0.7
v -0.3 2 -0.2
v -0.2 2 -0.2
v 0.2 2 -0.2
v 0.3 2 -0.2
v 0.2 2 -0.3
v -0.3 2 -0.6
v -0.2 2 -0.6
v 0.2 2 -0.6
v 0.3 2 -0.6
v -0.3 2.7 -0.1
v 0.3 2.7 -0.1
v -0.3 2.7 -0.7
v 0.3 2.7 -0.7

# faces
f 4/1/1 2/1/1 1/1/1
f 5/1/1 2/1/1 4/1/1
f 6/4/1 3/4/1 2/4/1
f 9/2/1 5/2/1 4/2/1
f 10/2/1 9/2/1 8/2/1
f 11/1/1 2/1/1 5/1/1
f 11/2/1 9/2/1 10/2/1
f 11/2/1 5/2/1 9/2/1
f 12/4/1 7/4/1 6/4/1
f 12/1/1 2/1/1 11/1/1
f 12/4/1 6/4/1 2/4/1
f 13/4/1 7/4/1 12/4/1
f 17/4/1 15/4/1 14/4/1
f 18/4/1 17/4/1 16/4/1
f 19/4/1 15/4/1 17/4/1
f 19/4/1 17/4/1 18/4/1
f 22/2/1 21/2/1 20/2/1
f 23/2/1 21/2/1 22/2/1
f 26/6/1 25/6/1 24/6/1
f 27/6/1 25/6/1 26/6/1
f 28/6/1 25/6/1 27/6/1
f 29/6/1 25/6/1 28/6/1
f 30/3/1 29/3/1 28/3/1
f 31/3/1 29/3/1 30/3/1
f 32/4/1 31/4/1 30/4/1
f 33/4/1 31/4/1 32/4/1
f 34/4/1 31/4/1 33/4/1
f 35/4/1 31/4/1 34/4/1
f 36/4/1 31/4/1 35/4/1
f 37/4/1 31/4/1 36/4/1
f 38/4/1 31/4/1 37/4/1
f 39/4/1 31/4/1 38/4/1
f 42/4/1 41/4/1 40/4/1
f 43/4/1 41/4/1 42/4/1
f 46/4/1 45/4/1 44/4/1
f 47/4/1 45/4/1 46/4/1
f 50/4/1 49/4/1 48/4/1
f 51/4/1 49/4/1 50/4/1
f 54/1/1 53/1/1 52/1/1
f 55/1/1 53/1/1 54/1/1
f 58/1/1 57/1/1 56/1/1
f 59/1/1 57/1/1 58/1/1
f 62/6/1 61/6/1 60/6/1
f 63/6/1 61/6/1 62/6/1
f 64/6/1 61/6/1 63/6/1
f 65/6/1 61/6/1 64/6/1
f 66/3/1 65/3/1 64/3/1
f 67/3/1 65/3/1 66/3/1
f 72/1/1 69/1/1 68/1/1
f 73/1/1 69/1/1 72/1/1
f 74/2/1 70/2/1 69/2/1
f 74/1/1 69/1/1 73/1/1
f 75/4/1 71/4/1 70/4/1
f 75/2/1 70/2/1 74/2/1
f 77/1/1 74/1/1 73/1/1
f 77/1/1 75/1/1 74/1/1
f 78/1/1 77/1/1 76/1/1
f 79/4/1 71/4/1 75/4/1
f 79/1/1 77/1/1 78/1/1
f 79/1/1 75/1/1 77/1/1
f 80/4/1 71/4/1 79/4/1
f 81/4/1 71/4/1 80/4/1
f 82/2/2 83/2/2 86/2/2
f 83/1/2 84/1/2 87/1/2
f 86/2/2 83/2/2 87/2/2
f 87/1/2 84/1/2 89/1/2
f 88/1/2 89/1/2 90/1/2
f 84/4/2 85/4/2 91/4/2
f 90/1/2 89/1/2 91/1/2
f 89/1/2 84/1/2 91/1/2
f 91/4/2 85/4/2 92/4/2
f 92/4/2 85/4/2 93/4/2
f 94/6/2 95/6/2 96/6/2
f 96/6/2 95/6/2 97/6/2
f 97/6/2 95/6/2 98/6/2
f 98/6/2 95/6/2 99/6/2
f 98/3/2 99/3/2 100/3/2
f 100/3/2 99/3/2 101/3/2
f 102/2/2 103/2/2 105/2/2
f 103/1/2 104/1/2 106/1/2
f 105/2/2 103/2/2 106/2/2
f 106/1/2 104/1/2 107/1/2
f 108/4/2 109/4/2 110/4/2
f 110/4/2 109/4/2 111/4/2
f 112/1/2 113/1/2 114/1/2
f 114/1/2 113/1/2 115/1/2
f 116/4/2 117/4/2 118/4/2
f 118/4/2 117/4/2 119/4/2
f 120/4/2 121/4/2 122/4/2
f 122/4/2 121/4/2 123/4/2
f 124/6/2 125/6/2 126/6/2
f 126/6/2 125/6/2 127/6/2
f 127/6/2 125/6/2 128/6/2
f 128/6/2 125/6/2 129/6/2
f 128/3/2 129/3/2 130/3/2
f 130/3/2 129/3/2 131/3/2
f 130/2/2 131/2/2 132/2/2
f 131/3/2 129/3/2 133/3/2
f 132/2/2 131/2/2 133/2/2
f 133/3/2 129/3/2 134/3/2
f 134/3/2 129/3/2 135/3/2
f 132/3/2 133/3/2 136/3/2
f 133/3/2 134/3/2 136/3/2
f 134/2/2 135/2/2 137/2/2
f 136/3/2 134/3/2 137/3/2
f 136/4/2 137/4/2 138/4/2
f 138/4/2 137/4/2 139/4/2
f 138/2/2 139/2/2 140/2/2
f 139/4/2 137/4/2 140/4/2
f 137/2/2 135/2/2 141/2/2
f 140/4/2 137/4/2 141/4/2
f 138/2/2 140/2/2 142/2/2
f 136/4/2 138/4/2 142/4/2
f 140/2/2 141/2/2 142/2/2
f 141/2/2 135/2/2 143/2/2
f 142/2/2 141/2/2 143/2/2
f 136/4/2 142/4/2 144/4/2
f 142/4/2 143/4/2 144/4/2
f 144/4/2 143/4/2 145/4/2
f 145/4/2 143/4/2 146/4/2
f 146/4/2 143/4/2 147/4/2
f 147/4/2 143/4/2 148/4/2
f 148/4/2 143/4/2 149/4/2
f 149/4/2 143/4/2 150/4/2
f 150/4/2 143/4/2 151/4/2
f 152/1/2 153/1/2 154/1/2
f 154/1/2 153/1/2 155/1/2
f 156/4/2 157/4/2 159/4/2
f 158/4/2 159/4/2 160/4/2
f 159/4/2 157/4/2 161/4/2
f 160/4/2 159/4/2 161/4/2
f 162/1/2 163/1/2 166/1/2
f 163/2/2 164/2/2 166/2/2
f 166/2/2 164/2/2 167/2/2
f 164/4/2 165/4/2 168/4/2
f 167/2/2 164/2/2 168/2/2
f 168/4/2 165/4/2 169/4/2
f 166/1/2 167/1/2 172/1/2
f 162/1/2 166/1/2 172/1/2
f 171/1/2 172/1/2 173/1/2
f 169/4/2 170/4/2 174/4/2
f 173/1/2 172/1/2 174/1/2
f 168/4/2 169/4/2 174/4/2
f 172/1/2 167/1/2 174/1/2
f 167/4/2 168/4/2 174/4/2
f 174/4/2 170/4/2 175/4/2
f 178/2/3 177/2/3 176/2/3
f 179/2/3 177/2/3 178/2/3
f 182/2/3 181/2/3 180/2/3
f 183/2/3 181/2/3 182/2/3
f 184/1/3 179/1/3 178/1/3
f 185/1/3 179/1/3 184/1/3
f 190/1/3 187/1/3 186/1/3
f 191/1/3 187/1/3 190/1/3
f 192/1/3 189/1/3 188/1/3
f 193/1/3 189/1/3 192/1/3
f 197/1/3 195/1/3 194/1/3
f 197/2/3 196/2/3 195/2/3
f 198/2/3 196/2/3 197/2/3
f 199/1/3 197/1/3 194/1/3
f 199/1/3 198/1/3 197/1/3
f 200/1/3 198/1/3 199/1/3
f 201/1/3 198/1/3 200/1/3
f 202/1/3 198/1/3 201/1/3
f 206/1/3 204/1/3 203/1/3
f 207/1/3 206/1/3 205/1/3
f 208/1/3 204/1/3 206/1/3
f 208/1/3 206/1/3 207/1/3
f 211/4/3 210/4/3 209/4/3
f 212/4/3 210/4/3 211/4/3
f 215/4/3 214/4/3 213/4/3
f 216/4/3 214/4/3 215/4/3
f 219/6/3 218/6/3 217/6/3
f 220/6/3 218/6/3 219/6/3
f 223/6/3 222/6/3 221/6/3
f 224/6/3 222/6/3 223/6/3
f 230/3/3 227/3/3 226/3/3
f 230/4/3 229/4/3 228/4/3
f 230/4/3 228/4/3 227/4/3
f 231/4/3 229/4/3 230/4/3
f 232/4/3 229/4/3 231/4/3
f 233/4/3 229/4/3 232/4/3
f 234/4/3 229/4/3 233/4/3
f 236/3/3 230/3/3 226/3/3
f 236/2/3 231/2/3 230/2/3
f 237/4/3 232/4/3 231/4/3
f 237/2/3 231/2/3 236/2/3
f 238/2/3 233/2/3 232/2/3
f 238/4/3 232/4/3 237/4/3
f 239/2/3 233/2/3 238/2/3
f 240/4/3 235/4/3 234/4/3
f 240/2/3 233/2/3 239/2/3
f 240/4/3 234/4/3 233/4/3
f 241/4/3 235/4/3 240/4/3
f 242/4/3 235/4/3 241/4/3
f 244/2/3 239/2/3 238/2/3
f 244/2/3 238/2/3 237/2/3
f 244/4/3 237/4/3 236/4/3
f 245/2/3 239/2/3 244/2/3
f 246/2/3 239/2/3 245/2/3
f 247/4/3 240/4/3 239/4/3
f 247/2/3 239/2/3 246/2/3
f 248/2/3 241/2/3 240/2/3
f 248/4/3 240/4/3 247/4/3
f 249/4/3 243/4/3 242/4/3
f 249/2/3 241/2/3 248/2/3
f 249/4/3 242/4/3 241/4/3
f 252/4/3 245/4/3 244/4/3
f 252/2/3 246/2/3 245/2/3
f 253/4/3 247/4/3 246/4/3
f 253/2/3 246/2/3 252/2/3
f 254/2/3 248/2/3 247/2/3
f 254/4/3 247/4/3 253/4/3
f 255/4/3 249/4/3 248/4/3
f 255/2/3 248/2/3 254/2/3
f 256/1/3 251/1/3 250/1/3
f 257/1/3 251/1/3 256/1/3
f 258/1/3 251/1/3 257/1/3
f 259/1/3 251/1/3 258/1/3
f 260/6/3 226/6/3 225/6/3
f 261/3/3 236/3/3 226/3/3
f 261/6/3 226/6/3 260/6/3
f 262/3/3 236/3/3 261/3/3
f 263/1/3 258/1/3 257/1/3
f 263/6/3 259/6/3 258/6/3
f 264/1/3 251/1/3 259/1/3
f 264/6/3 259/6/3 263/6/3
f 267/3/3 236/3/3 262/3/3
f 268/4/3 253/4/3 252/4/3
f 268/4/3 249/4/3 255/4/3
f 268/4/3 243/4/3 249/4/3
f 268/4/3 254/4/3 253/4/3
f 268/4/3 255/4/3 254/4/3
f 269/4/3 243/4/3 268/4/3
f 270/1/3 256/1/3 250/1/3
f 271/2/3 257/2/3 256/2/3
f 271/1/3 256/1/3 270/1/3
f 272/1/3 263/1/3 257/1/3
f 272/1/3 264/1/3 263/1/3
f 273/1/3 251/1/3 264/1/3
f 273/1/3 264/1/3 272/1/3
f 274/3/3 267/3/3 266/3/3
f 275/3/3 267/3/3 274/3/3
f 276/4/3 268/4/3 252/4/3
f 277/2/3 269/2/3 268/2/3
f 277/4/3 268/4/3 276/4/3
f 278/2/3 271/2/3 270/2/3
f 279/2/3 257/2/3 271/2/3
f 279/2/3 271/2/3 278/2/3
f 279/1/3 272/1/3 257/1/3
f 280/6/3 273/6/3 272/6/3
f 280/1/3 272/1/3 279/1/3
f 281/1/3 251/1/3 273/1/3
f 281/6/3 273/6/3 280/6/3
f 282/3/3 274/3/3 266/3/3
f 282/2/3 275/2/3 274/2/3
f 283/3/3 267/3/3 275/3/3
f 283/2/3 275/2/3 282/2/3
f 284/3/3 267/3/3 283/3/3
f 285/2/3 277/2/3 276/2/3
f 285/4/3 276/4/3 252/4/3
f 286/2/3 269/2/3 277/2/3
f 286/2/3 277/2/3 285/2/3
f 287/1/3 280/1/3 279/1/3
f 287/1/3 279/1/3 278/1/3
f 287/1/3 281/1/3 280/1/3
f 288/1/3 251/1/3 281/1/3
f 288/1/3 281/1/3 287/1/3
f 289/3/3 282/3/3 266/3/3
f 289/3/3 283/3/3 282/3/3
f 290/2/3 284/2/3 283/2/3
f 290/3/3 283/3/3 289/3/3
f 291/4/3 286/4/3 285/4/3
f 292/4/3 286/4/3 291/4/3
f 293/3/3 289/3/3 266/3/3
f 293/2/3 290/2/3 289/2/3
f 294/2/3 290/2/3 293/2/3
f 295/4/3 285/4/3 252/4/3
f 295/4/3 291/4/3 285/4/3
f 296/4/3 291/4/3 295/4/3
f 297/6/3 266/6/3 265/6/3
f 298/3/3 294/3/3 293/3/3
f 298/6/3 266/6/3 297/6/3
f 298/3/3 293/3/3 266/3/3
f 299/2/3 290/2/3 294/2/3
f 299/3/3 294/3/3 298/3/3
f 300/2/3 284/2/3 290/2/3
f 300/2/3 290/2/3 299/2/3
f 300/3/3 267/3/3 284/3/3
f 301/3/3 236/3/3 267/3/3
f 301/3/3 267/3/3 300/3/3
f 301/4/3 252/4/3 244/4/3
f 301/4/3 244/4/3 236/4/3
f 301/4/3 295/4/3 252/4/3
f 302/4/3 295/4/3 301/4/3
f 303/4/3 295/4/3 302/4/3
f 306/4/3 305/4/3 304/4/3
f 308/4/3 306/4/3 304/4/3
f 309/1/3 307/1/3 306/1/3
f 309/4/3 306/4/3 308/4/3
f 310/1/3 307/1/3 309/1/3
f 311/2/3 309/2/3 308/2/3
f 311/2/3 310/2/3 309/2/3
f 312/2/3 310/2/3 311/2/3
f 313/2/3 310/2/3 312/2/3
f 314/4/3 312/4/3 311/4/3
f 315/4/3 312/4/3 314/4/3
f 316/4/4 317/4/4 318/4/4
f 318/4/4 317/4/4 319/4/4
f 320/4/4 321/4/4 322/4/4
f 322/4/4 321/4/4 323/4/4
f 324/4/4 325/4/4 326/4/4
f 326/4/4 325/4/4 327/4/4
f 324/4/4 326/4/4 328/4/4
f 328/4/4 326/4/4 329/4/4
f 330/4/4 331/4/4 332/4/4
f 330/4/4 332/4/4 334/4/4
f 332/4/4 333/4/4 334/4/4
f 334/4/4 333/4/4 335/4/4
f 336/4/4 337/4/4 338/4/4
f 338/4/4 337/4/4 339/4/4
f 340/4/4 341/4/4 342/4/4
f 340/4/4 342/4/4 344/4/4
f 342/1/4 343/1/4 344/1/4
f 344/1/4 343/1/4 345/1/4
f 340/4/4 344/4/4 346/4/4
f 346/4/4 344/4/4 347/4/4
f 348/4/4 349/4/4 350/4/4
f 350/4/4 349/4/4 351/4/4
f 354/4/4 355/4/4 356/4/4
f 356/4/4 357/4/4 358/4/4
f 352/6/4 353/6/4 362/6/4
f 353/3/4 354/3/4 363/3/4
f 362/6/4 353/6/4 363/6/4
f 363/3/4 354/3/4 364/3/4
f 364/3/4 354/3/4 367/3/4
f 360/1/4 361/1/4 368/1/4
f 368/1/4 361/1/4 369/1/4
f 366/3/4 367/3/4 370/3/4
f 367/3/4 354/3/4 370/3/4
f 354/4/4 356/4/4 371/4/4
f 370/3/4 354/3/4 371/3/4
f 356/4/4 358/4/4 371/4/4
f 358/4/4 359/4/4 371/4/4
f 371/4/4 359/4/4 372/4/4
f 372/4/4 359/4/4 373/4/4
f 373/4/4 359/4/4 374/4/4
f 366/3/4 370/3/4 375/3/4
f 370/2/4 371/2/4 376/2/4
f 375/3/4 370/3/4 376/3/4
f 371/2/4 372/2/4 376/2/4
f 372/4/4 373/4/4 377/4/4
f 376/2/4 372/2/4 377/2/4
f 377/4/4 373/4/4 378/4/4
f 378/4/4 373/4/4 379/4/4
f 379/4/4 373/4/4 380/4/4
f 365/6/4 366/6/4 381/6/4
f 366/3/4 375/3/4 382/3/4
f 381/6/4 366/6/4 382/6/4
f 375/2/4 376/2/4 383/2/4
f 382/3/4 375/3/4 383/3/4
f 376/2/4 377/2/4 383/2/4
f 377/2/4 378/2/4 383/2/4
f 378/4/4 379/4/4 384/4/4
f 383/2/4 378/2/4 384/2/4
f 384/4/4 379/4/4 385/4/4
f 390/6/5 387/6/5 386/6/5
f 391/6/5 387/6/5 390/6/5
f 392/6/5 389/6/5 388/6/5
f 393/6/5 389/6/5 392/6/5
f 396/3/5 395/3/5 394/3/5
f 397/3/5 395/3/5 396/3/5
f 403/2/5 399/2/5 398/2/5
f 404/2/5 399/2/5 403/2/5
f 405/1/5 401/1/5 400/1/5
f 407/1/5 405/1/5 400/1/5
f 407/1/5 406/1/5 405/1/5
f 408/1/5 406/1/5 407/1/5
f 409/1/5 407/1/5 400/1/5
f 410/2/5 408/2/5 407/2/5
f 410/1/5 407/1/5 409/1/5
f 411/1/5 404/1/5 403/1/5
f 411/1/5 403/1/5 402/1/5
f 412/1/5 404/1/5 411/1/5
f 413/2/5 410/2/5 409/2/5
f 414/2/5 408/2/5 410/2/5
f 414/2/5 410/2/5 413/2/5
f 415/2/5 408/2/5 414/2/5
f 416/2/5 408/2/5 415/2/5
f 417/4/5 412/4/5 411/4/5
f 418/4/5 414/4/5 413/4/5
f 419/2/5 415/2/5 414/2/5
f 419/4/5 414/4/5 418/4/5
f 420/4/5 416/4/5 415/4/5
f 420/2/5 415/2/5 419/2/5
f 421/4/5 417/4/5 411/4/5
f 422/4/5 417/4/5 421/4/5
f 423/4/5 419/4/5 418/4/5
f 423/4/5 420/4/5 419/4/5
f 424/4/5 416/4/5 420/4/5
f 424/4/5 420/4/5 423/4/5
f 429/4/5 426/4/5 425/4/5
f 430/4/5 426/4/5 429/4/5
f 431/4/5 428/4/5 427/4/5
f 432/4/5 428/4/5 431/4/5
f 438/2/5 434/2/5 433/2/5
f 439/1/5 435/1/5 434/1/5
f 439/2/5 434/2/5 438/2/5
f 440/1/5 435/1/5 439/1/5
f 441/1/5 437/1/5 436/1/5
f 442/1/5 437/1/5 441/1/5
f 447/4/5 444/4/5 443/4/5
f 448/4/5 444/4/5 447/4/5
f 449/4/5 446/4/5 445/4/5
f 450/4/5 446/4/5 449/4/5
f 455/1/5 452/1/5 451/1/5
f 456/2/5 453/2/5 452/2/5
f 456/1/5 452/1/5 455/1/5
f 457/1/5 454/1/5 453/1/5
f 457/2/5 453/2/5 456/2/5
f 458/1/5 454/1/5 457/1/5
f 459/1/5 455/1/5 451/1/5
f 460/1/5 454/1/5 458/1/5
f 461/1/5 459/1/5 451/1/5
f 461/1/5 460/1/5 459/1/5
f 462/1/5 454/1/5 460/1/5
f 462/1/5 460/1/5 461/1/5
f 463/6/6 464/6/6 467/6/6
f 467/6/6 464/6/6 468/6/6
f 465/6/6 466/6/6 469/6/6
f 469/6/6 466/6/6 470/6/6
f 471/2/6 472/2/6 475/2/6
f 475/2/6 472/2/6 476/2/6
f 473/1/6 474/1/6 477/1/6
f 477/1/6 474/1/6 478/1/6
f 479/2/6 480/2/6 484/2/6
f 480/1/6 481/1/6 485/1/6
f 484/2/6 480/2/6 485/2/6
f 484/1/6 485/1/6 486/1/6
f 485/1/6 481/1/6 487/1/6
f 486/1/6 485/1/6 487/1/6
f 487/1/6 481/1/6 488/1/6
f 482/1/6 483/1/6 489/1/6
f 489/1/6 483/1/6 490/1/6
f 490/1/6 483/1/6 491/1/6
f 486/4/6 487/4/6 492/4/6
f 492/4/6 487/4/6 493/4/6
f 490/4/6 491/4/6 494/4/6
f 494/4/6 491/4/6 495/4/6
f 496/4/6 497/4/6 500/4/6
f 498/4/6 499/4/6 503/4/6
f 500/4/6 501/4/6 504/4/6
f 496/4/6 500/4/6 504/4/6
f 504/4/6 501/4/6 505/4/6
f 502/4/6 503/4/6 506/4/6
f 503/4/6 499/4/6 506/4/6
f 506/4/6 499/4/6 507/4/6
f 505/4/6 501/4/6 508/4/6
f 508/4/6 501/4/6 509/4/6
f 502/4/6 506/4/6 510/4/6
f 510/4/6 506/4/6 511/4/6
f 512/4/6 513/4/6 516/4/6
f 516/4/6 513/4/6 517/4/6
f 514/4/6 515/4/6 518/4/6
f 518/4/6 515/4/6 519/4/6
f 520/4/6 521/4/6 524/4/6
f 521/2/6 522/2/6 525/2/6
f 524/4/6 521/4/6 525/4/6
f 525/2/6 522/2/6 526/2/6
f 522/4/6 523/4/6 527/4/6
f 526/2/6 522/2/6 527/2/6
f 520/4/6 524/4/6 528/4/6
f 527/4/6 523/4/6 529/4/6
f 520/4/6 528/4/6 530/4/6
f 528/4/6 529/4/6 530/4/6
f 529/4/6 523/4/6 531/4/6
f 530/4/6 529/4/6 531/4/6
f 534/4/6 535/4/6 536/4/6
f 532/4/6 533/4/6 537/4/6
f 537/4/6 533/4/6 538/4/6
f 536/4/6 535/4/6 539/4/6
f 539/4/6 535/4/6 540/4/6
f 541/1/6 542/1/6 543/1/6
f 543/1/6 542/1/6 544/1/6
