# MagicaVoxel @ Ephtracy

# group
o 

# material
mtllib running_zombie.mtl
usemtl palette

# normals
vn -1 0 0
vn 1 0 0
vn 0 0 1
vn 0 0 -1
vn 0 -1 0
vn 0 1 0

# texcoords
vt 0.173828 0.5
vt 0.642578 0.5
vt 0.806641 0.5
vt 0.857422 0.5
vt 0.994141 0.5

# verts
v -0.9 1.3 0.5
v -0.9 1.3 0.1
v -0.9 1.3 -0.4
v -0.9 1.4 0.5
v -0.9 1.4 0.4
v -0.9 1.4 -0.4
v -0.9 1.4 -0.5
v -0.9 1.5 0.6
v -0.9 1.5 0.5
v -0.9 1.6 0.6
v -0.9 1.6 0.4
v -0.9 1.6 0.1
v -0.9 1.6 -0.5
v -0.8 1.5 -0.5
v -0.8 1.5 -0.6
v -0.8 1.6 0.1
v -0.8 1.6 -0.5
v -0.8 1.7 0.1
v -0.8 1.7 -0.6
v -0.7 1.3 0.6
v -0.7 1.3 0.5
v -0.7 1.4 0.6
v -0.7 1.4 0.5
v -0.6 0 5.96046e-08
v -0.6 0 -0.7
v -0.6 0.1 5.96046e-08
v -0.6 0.1 -0.1
v -0.6 0.2 -0.1
v -0.6 0.2 -0.7
v -0.6 0.9 -0.1
v -0.6 0.9 -0.7
v -0.6 1.3 -0.1
v -0.6 1.3 -0.4
v -0.6 1.4 -0.4
v -0.6 1.4 -0.5
v -0.6 1.5 -0.5
v -0.6 1.5 -0.6
v -0.6 1.7 -0.6
v -0.6 1.7 -0.7
v -0.5 1.7 -0.1
v -0.5 1.7 -0.7
v -0.5 1.8 -0.1
v -0.5 1.8 -0.7
v -0.4 1.8 -0.1
v -0.4 1.8 -0.7
v -0.4 1.9 -0.1
v -0.4 1.9 -0.7
v -0.3 1.9 -0.2
v -0.3 1.9 -0.6
v -0.3 2 -0.2
v -0.3 2 -0.6
v -0.3 2.1 -0.1
v -0.3 2.1 -0.7
v -0.3 2.7 -0.1
v -0.3 2.7 -0.7
v -0.2 2 -0.2
v -0.2 2 -0.6
v -0.2 2.1 -0.2
v -0.2 2.1 -0.6
v 0.1 0 5.96046e-08
v 0.1 0 -0.7
v 0.1 0.1 5.96046e-08
v 0.1 0.1 -0.1
v 0.1 0.2 -0.1
v 0.1 0.2 -0.7
v 0.1 0.8 -0.1
v 0.1 0.8 -0.7
v 0.6 1.3 0.6
v 0.6 1.3 0.2
v 0.6 1.3 5.96046e-08
v 0.6 1.3 -0.1
v 0.6 1.4 0.6
v 0.6 1.4 0.5
v 0.6 1.4 0.2
v 0.6 1.4 0.1
v 0.6 1.4 5.96046e-08
v 0.6 1.5 0.6
v 0.6 1.5 0.5
v 0.6 1.6 0.6
v 0.6 1.6 0.1
v 0.6 1.7 0.1
v 0.6 1.7 -0.1
v -0.6 1.3 0.6
v -0.6 1.3 0.5
v -0.6 1.3 0.1
v -0.6 1.3 -0.1
v -0.6 1.4 0.6
v -0.6 1.4 0.5
v -0.6 1.5 0.6
v -0.6 1.5 0.5
v -0.6 1.6 0.6
v -0.6 1.6 0.1
v -0.6 1.7 0.1
v -0.6 1.7 -0.1
v -0.1 0 5.96046e-08
v -0.1 0 -0.7
v -0.1 0.1 5.96046e-08
v -0.1 0.1 -0.1
v -0.1 0.2 -0.1
v -0.1 0.2 -0.7
v -0.1 0.8 -0.1
v -0.1 0.8 -0.7
v 0.2 2 -0.2
v 0.2 2 -0.3
v 0.2 2 -0.6
v 0.2 2.1 -0.2
v 0.2 2.1 -0.3
v 0.2 2.1 -0.6
v 0.3 1.9 -0.2
v 0.3 1.9 -0.6
v 0.3 2 -0.2
v 0.3 2 -0.6
v 0.3 2.1 -0.1
v 0.3 2.1 -0.7
v 0.3 2.7 -0.1
v 0.3 2.7 -0.7
v 0.4 1.8 -0.1
v 0.4 1.8 -0.7
v 0.4 1.9 -0.1
v 0.4 1.9 -0.7
v 0.5 1.7 -0.1
v 0.5 1.7 -0.7
v 0.5 1.8 -0.1
v 0.5 1.8 -0.7
v 0.6 0 5.96046e-08
v 0.6 0 -0.7
v 0.6 0.1 5.96046e-08
v 0.6 0.1 -0.1
v 0.6 0.2 -0.1
v 0.6 0.2 -0.7
v 0.6 0.5 -0.1
v 0.6 0.5 -0.2
v 0.6 0.6 -0.1
v 0.6 0.6 -0.2
v 0.6 0.8 -0.6
v 0.6 0.8 -0.7
v 0.6 0.9 -0.1
v 0.6 0.9 -0.6
v 0.6 1 -0.4
v 0.6 1 -0.5
v 0.6 1.1 -0.5
v 0.6 1.1 -0.6
v 0.6 1.1 -0.7
v 0.6 1.2 -0.5
v 0.6 1.2 -0.6
v 0.6 1.2 -0.7
v 0.6 1.3 -0.1
v 0.6 1.3 -0.4
v 0.6 1.3 -0.5
v 0.6 1.3 -0.6
v 0.6 1.3 -0.7
v 0.6 1.4 -0.4
v 0.6 1.4 -0.5
v 0.6 1.5 -0.5
v 0.6 1.5 -0.6
v 0.6 1.7 -0.6
v 0.6 1.7 -0.7
v 0.7 1.3 0.6
v 0.7 1.3 0.5
v 0.7 1.4 0.6
v 0.7 1.4 0.5
v 0.8 1.5 -0.5
v 0.8 1.5 -0.6
v 0.8 1.6 0.1
v 0.8 1.6 -0.5
v 0.8 1.7 0.1
v 0.8 1.7 -0.6
v 0.9 1.3 0.5
v 0.9 1.3 0.3
v 0.9 1.3 5.96046e-08
v 0.9 1.3 -0.4
v 0.9 1.4 0.3
v 0.9 1.4 0.1
v 0.9 1.4 5.96046e-08
v 0.9 1.4 -0.4
v 0.9 1.4 -0.5
v 0.9 1.5 0.6
v 0.9 1.5 0.5
v 0.9 1.6 0.6
v 0.9 1.6 0.1
v 0.9 1.6 -0.5
v -0.9 1.5 0.6
v -0.9 1.6 0.6
v -0.8 1.5 0.6
v -0.8 1.6 0.6
v -0.7 1.3 0.6
v -0.7 1.4 0.6
v -0.6 1.3 0.6
v -0.6 1.4 0.6
v -0.6 1.5 0.6
v -0.6 1.6 0.6
v 0.6 1.3 0.6
v 0.6 1.4 0.6
v 0.6 1.5 0.6
v 0.6 1.6 0.6
v 0.7 1.3 0.6
v 0.7 1.4 0.6
v 0.9 1.5 0.6
v 0.9 1.6 0.6
v -0.9 1.3 0.5
v -0.9 1.4 0.5
v -0.9 1.5 0.5
v -0.8 1.4 0.5
v -0.8 1.5 0.5
v -0.7 1.3 0.5
v -0.7 1.4 0.5
v -0.6 1.4 0.5
v -0.6 1.5 0.5
v 0.6 1.4 0.5
v 0.6 1.5 0.5
v 0.7 1.3 0.5
v 0.7 1.4 0.5
v 0.9 1.3 0.5
v 0.9 1.5 0.5
v -0.8 1.6 0.1
v -0.8 1.7 0.1
v -0.6 1.6 0.1
v -0.6 1.7 0.1
v 0.6 1.6 0.1
v 0.6 1.7 0.1
v 0.8 1.6 0.1
v 0.8 1.7 0.1
v -0.6 0 5.96046e-08
v -0.6 0.1 5.96046e-08
v -0.1 0 5.96046e-08
v -0.1 0.1 5.96046e-08
v 0.1 0 5.96046e-08
v 0.1 0.1 5.96046e-08
v 0.6 0 5.96046e-08
v 0.6 0.1 5.96046e-08
v -0.6 0.1 -0.1
v -0.6 0.2 -0.1
v -0.6 0.9 -0.1
v -0.6 1.3 -0.1
v -0.6 1.7 -0.1
v -0.5 0.9 -0.1
v -0.5 1 -0.1
v -0.5 1.1 -0.1
v -0.5 1.3 -0.1
v -0.5 1.7 -0.1
v -0.5 1.8 -0.1
v -0.4 0.9 -0.1
v -0.4 1 -0.1
v -0.4 1.3 -0.1
v -0.4 1.4 -0.1
v -0.4 1.8 -0.1
v -0.4 1.9 -0.1
v -0.3 1 -0.1
v -0.3 1.1 -0.1
v -0.3 1.2 -0.1
v -0.3 1.3 -0.1
v -0.3 1.4 -0.1
v -0.3 2.1 -0.1
v -0.3 2.7 -0.1
v -0.2 1 -0.1
v -0.2 1.1 -0.1
v -0.2 1.2 -0.1
v -0.2 1.3 -0.1
v -0.2 2.2 -0.1
v -0.2 2.3 -0.1
v -0.2 2.4 -0.1
v -0.2 2.5 -0.1
v -0.1 0.1 -0.1
v -0.1 0.2 -0.1
v -0.1 0.8 -0.1
v -0.1 2.4 -0.1
v -0.1 2.5 -0.1
v 0.1 0.1 -0.1
v 0.1 0.2 -0.1
v 0.1 0.8 -0.1
v 0.1 1.7 -0.1
v 0.1 1.9 -0.1
v 0.1 2.1 -0.1
v 0.1 2.2 -0.1
v 0.1 2.4 -0.1
v 0.1 2.5 -0.1
v 0.2 0.4 -0.1
v 0.2 0.6 -0.1
v 0.2 1.6 -0.1
v 0.2 1.7 -0.1
v 0.2 1.8 -0.1
v 0.2 1.9 -0.1
v 0.2 2.1 -0.1
v 0.2 2.3 -0.1
v 0.2 2.4 -0.1
v 0.2 2.5 -0.1
v 0.3 0.3 -0.1
v 0.3 0.4 -0.1
v 0.3 0.5 -0.1
v 0.3 0.6 -0.1
v 0.3 1.6 -0.1
v 0.3 1.8 -0.1
v 0.3 2.1 -0.1
v 0.3 2.7 -0.1
v 0.4 0.3 -0.1
v 0.4 0.4 -0.1
v 0.4 0.5 -0.1
v 0.4 0.6 -0.1
v 0.4 1.8 -0.1
v 0.4 1.9 -0.1
v 0.5 0.4 -0.1
v 0.5 0.5 -0.1
v 0.5 1.7 -0.1
v 0.5 1.8 -0.1
v 0.6 0.1 -0.1
v 0.6 0.2 -0.1
v 0.6 0.5 -0.1
v 0.6 0.6 -0.1
v 0.6 0.9 -0.1
v 0.6 1.3 -0.1
v 0.6 1.7 -0.1
v -0.3 1.9 -0.2
v -0.3 2 -0.2
v -0.2 2 -0.2
v -0.2 2.1 -0.2
v 0.1 1.9 -0.2
v 0.1 2 -0.2
v 0.1 2.1 -0.2
v 0.2 1.9 -0.2
v 0.2 2 -0.2
v 0.2 2.1 -0.2
v 0.3 1.9 -0.2
v 0.3 2 -0.2
v -0.9 1.3 -0.4
v -0.9 1.4 -0.4
v -0.6 1.3 -0.4
v -0.6 1.4 -0.4
v 0.6 1.3 -0.4
v 0.6 1.4 -0.4
v 0.9 1.3 -0.4
v 0.9 1.4 -0.4
v -0.9 1.4 -0.5
v -0.9 1.6 -0.5
v -0.8 1.5 -0.5
v -0.8 1.6 -0.5
v -0.6 1.4 -0.5
v -0.6 1.5 -0.5
v 0.6 1.4 -0.5
v 0.6 1.5 -0.5
v 0.8 1.5 -0.5
v 0.8 1.6 -0.5
v 0.9 1.4 -0.5
v 0.9 1.6 -0.5
v -0.8 1.5 -0.6
v -0.8 1.7 -0.6
v -0.6 1.5 -0.6
v -0.6 1.7 -0.6
v -0.3 1.9 -0.6
v -0.3 2 -0.6
v -0.2 2 -0.6
v -0.2 2.1 -0.6
v 0.2 2 -0.6
v 0.2 2.1 -0.6
v 0.3 1.9 -0.6
v 0.3 2 -0.6
v 0.6 1.5 -0.6
v 0.6 1.7 -0.6
v 0.8 1.5 -0.6
v 0.8 1.7 -0.6
v -0.6 0 -0.7
v -0.6 0.2 -0.7
v -0.6 0.9 -0.7
v -0.6 1.7 -0.7
v -0.5 1.7 -0.7
v -0.5 1.8 -0.7
v -0.4 1.8 -0.7
v -0.4 1.9 -0.7
v -0.3 2.1 -0.7
v -0.3 2.7 -0.7
v -0.1 0 -0.7
v -0.1 0.2 -0.7
v -0.1 0.8 -0.7
v 0.1 0 -0.7
v 0.1 0.2 -0.7
v 0.1 0.8 -0.7
v 0.3 2.1 -0.7
v 0.3 2.7 -0.7
v 0.4 1.8 -0.7
v 0.4 1.9 -0.7
v 0.5 0.8 -0.7
v 0.5 0.9 -0.7
v 0.5 1.1 -0.7
v 0.5 1.2 -0.7
v 0.5 1.3 -0.7
v 0.5 1.7 -0.7
v 0.5 1.8 -0.7
v 0.6 0 -0.7
v 0.6 0.2 -0.7
v 0.6 0.8 -0.7
v 0.6 1.1 -0.7
v 0.6 1.2 -0.7
v 0.6 1.3 -0.7
v 0.6 1.7 -0.7
v -0.6 0 5.96046e-08
v -0.1 0 5.96046e-08
v 0.1 0 5.96046e-08
v 0.6 0 5.96046e-08
v -0.6 0 -0.7
v -0.1 0 -0.7
v 0.1 0 -0.7
v 0.6 0 -0.7
v -0.1 0.8 -0.1
v 0.1 0.8 -0.1
v -0.1 0.8 -0.7
v 0.1 0.8 -0.7
v -0.7 1.3 0.6
v -0.6 1.3 0.6
v 0.6 1.3 0.6
v 0.7 1.3 0.6
v -0.9 1.3 0.5
v -0.7 1.3 0.5
v -0.6 1.3 0.5
v 0.7 1.3 0.5
v 0.9 1.3 0.5
v 0.7 1.3 0.3
v 0.9 1.3 0.3
v 0.6 1.3 0.2
v 0.7 1.3 0.2
v -0.9 1.3 0.1
v -0.6 1.3 0.1
v 0.6 1.3 5.96046e-08
v 0.9 1.3 5.96046e-08
v -0.6 1.3 -0.1
v 0.6 1.3 -0.1
v -0.9 1.3 -0.4
v -0.6 1.3 -0.4
v 0.6 1.3 -0.4
v 0.9 1.3 -0.4
v -0.9 1.4 -0.4
v -0.6 1.4 -0.4
v 0.6 1.4 -0.4
v 0.9 1.4 -0.4
v -0.9 1.4 -0.5
v -0.6 1.4 -0.5
v 0.6 1.4 -0.5
v 0.9 1.4 -0.5
v -0.9 1.5 0.6
v -0.8 1.5 0.6
v -0.6 1.5 0.6
v 0.6 1.5 0.6
v 0.9 1.5 0.6
v -0.9 1.5 0.5
v -0.8 1.5 0.5
v -0.6 1.5 0.5
v 0.6 1.5 0.5
v 0.9 1.5 0.5
v -0.8 1.5 -0.5
v -0.6 1.5 -0.5
v 0.6 1.5 -0.5
v 0.8 1.5 -0.5
v -0.8 1.5 -0.6
v -0.6 1.5 -0.6
v 0.6 1.5 -0.6
v 0.8 1.5 -0.6
v -0.3 2.1 -0.1
v 0.1 2.1 -0.1
v 0.2 2.1 -0.1
v 0.3 2.1 -0.1
v -0.2 2.1 -0.2
v 0.1 2.1 -0.2
v 0.2 2.1 -0.2
v 0.2 2.1 -0.3
v -0.2 2.1 -0.6
v 0.2 2.1 -0.6
v -0.3 2.1 -0.7
v 0.3 2.1 -0.7
v -0.6 0.1 5.96046e-08
v -0.1 0.1 5.96046e-08
v 0.1 0.1 5.96046e-08
v 0.6 0.1 5.96046e-08
v -0.6 0.1 -0.1
v -0.1 0.1 -0.1
v 0.1 0.1 -0.1
v 0.6 0.1 -0.1
v -0.7 1.4 0.6
v -0.6 1.4 0.6
v 0.6 1.4 0.6
v 0.7 1.4 0.6
v -0.7 1.4 0.5
v -0.6 1.4 0.5
v 0.6 1.4 0.5
v 0.7 1.4 0.5
v -0.9 1.6 0.6
v -0.8 1.6 0.6
v -0.6 1.6 0.6
v 0.6 1.6 0.6
v 0.9 1.6 0.6
v -0.9 1.6 0.4
v -0.8 1.6 0.4
v -0.9 1.6 0.1
v -0.8 1.6 0.1
v -0.6 1.6 0.1
v 0.6 1.6 0.1
v 0.8 1.6 0.1
v 0.9 1.6 0.1
v -0.9 1.6 -0.5
v -0.8 1.6 -0.5
v 0.8 1.6 -0.5
v 0.9 1.6 -0.5
v -0.8 1.7 0.1
v -0.6 1.7 0.1
v 0.6 1.7 0.1
v 0.8 1.7 0.1
v -0.6 1.7 -0.1
v -0.5 1.7 -0.1
v 0.5 1.7 -0.1
v 0.6 1.7 -0.1
v -0.8 1.7 -0.6
v -0.6 1.7 -0.6
v 0.6 1.7 -0.6
v 0.8 1.7 -0.6
v -0.6 1.7 -0.7
v -0.5 1.7 -0.7
v 0.5 1.7 -0.7
v 0.6 1.7 -0.7
v -0.5 1.8 -0.1
v -0.4 1.8 -0.1
v 0.4 1.8 -0.1
v 0.5 1.8 -0.1
v -0.5 1.8 -0.7
v -0.4 1.8 -0.7
v 0.4 1.8 -0.7
v 0.5 1.8 -0.7
v -0.4 1.9 -0.1
v 0.1 1.9 -0.1
v 0.2 1.9 -0.1
v 0.4 1.9 -0.1
v -0.3 1.9 -0.2
v 0.1 1.9 -0.2
v 0.2 1.9 -0.2
v 0.3 1.9 -0.2
v -0.3 1.9 -0.6
v 0.3 1.9 -0.6
v -0.4 1.9 -0.7
v 0.4 1.9 -0.7
v -0.3 2 -0.2
v -0.2 2 -0.2
v 0.2 2 -0.2
v 0.3 2 -0.2
v 0.2 2 -0.3
v -0.3 2 -0.6
v -0.2 2 -0.6
v 0.2 2 -0.6
v 0.3 2 -0.6
v -0.3 2.7 -0.1
v 0.3 2.7 -0.1
v -0.3 2.7 -0.7
v 0.3 2.7 -0.7

# faces
f 4/2/1 2/2/1 1/2/1
f 5/2/1 2/2/1 4/2/1
f 6/1/1 3/1/1 2/1/1
f 9/4/1 5/4/1 4/4/1
f 10/4/1 9/4/1 8/4/1
f 11/2/1 2/2/1 5/2/1
f 11/4/1 9/4/1 10/4/1
f 11/4/1 5/4/1 9/4/1
f 12/1/1 7/1/1 6/1/1
f 12/2/1 2/2/1 11/2/1
f 12/1/1 6/1/1 2/1/1
f 13/1/1 7/1/1 12/1/1
f 17/1/1 15/1/1 14/1/1
f 18/1/1 17/1/1 16/1/1
f 19/1/1 15/1/1 17/1/1
f 19/1/1 17/1/1 18/1/1
f 22/4/1 21/4/1 20/4/1
f 23/4/1 21/4/1 22/4/1
f 26/5/1 25/5/1 24/5/1
f 27/5/1 25/5/1 26/5/1
f 28/5/1 25/5/1 27/5/1
f 29/5/1 25/5/1 28/5/1
f 30/3/1 29/3/1 28/3/1
f 31/3/1 29/3/1 30/3/1
f 32/1/1 31/1/1 30/1/1
f 33/1/1 31/1/1 32/1/1
f 34/1/1 31/1/1 33/1/1
f 35/1/1 31/1/1 34/1/1
f 36/1/1 31/1/1 35/1/1
f 37/1/1 31/1/1 36/1/1
f 38/1/1 31/1/1 37/1/1
f 39/1/1 31/1/1 38/1/1
f 42/1/1 41/1/1 40/1/1
f 43/1/1 41/1/1 42/1/1
f 46/1/1 45/1/1 44/1/1
f 47/1/1 45/1/1 46/1/1
f 50/1/1 49/1/1 48/1/1
f 51/1/1 49/1/1 50/1/1
f 54/2/1 53/2/1 52/2/1
f 55/2/1 53/2/1 54/2/1
f 58/2/1 57/2/1 56/2/1
f 59/2/1 57/2/1 58/2/1
f 62/5/1 61/5/1 60/5/1
f 63/5/1 61/5/1 62/5/1
f 64/5/1 61/5/1 63/5/1
f 65/5/1 61/5/1 64/5/1
f 66/3/1 65/3/1 64/3/1
f 67/3/1 65/3/1 66/3/1
f 72/2/1 69/2/1 68/2/1
f 73/2/1 69/2/1 72/2/1
f 74/4/1 70/4/1 69/4/1
f 74/2/1 69/2/1 73/2/1
f 75/4/1 70/4/1 74/4/1
f 76/1/1 71/1/1 70/1/1
f 76/4/1 70/4/1 75/4/1
f 78/2/1 75/2/1 74/2/1
f 78/2/1 74/2/1 73/2/1
f 79/2/1 78/2/1 77/2/1
f 80/1/1 76/1/1 75/1/1
f 80/2/1 78/2/1 79/2/1
f 80/2/1 75/2/1 78/2/1
f 81/1/1 76/1/1 80/1/1
f 82/1/1 71/1/1 76/1/1
f 82/1/1 76/1/1 81/1/1
f 83/4/2 84/4/2 87/4/2
f 84/2/2 85/2/2 88/2/2
f 87/4/2 84/4/2 88/4/2
f 88/2/2 85/2/2 90/2/2
f 89/2/2 90/2/2 91/2/2
f 85/1/2 86/1/2 92/1/2
f 91/2/2 90/2/2 92/2/2
f 90/2/2 85/2/2 92/2/2
f 92/1/2 86/1/2 93/1/2
f 93/1/2 86/1/2 94/1/2
f 95/5/2 96/5/2 97/5/2
f 97/5/2 96/5/2 98/5/2
f 98/5/2 96/5/2 99/5/2
f 99/5/2 96/5/2 100/5/2
f 99/3/2 100/3/2 101/3/2
f 101/3/2 100/3/2 102/3/2
f 103/4/2 104/4/2 106/4/2
f 104/2/2 105/2/2 107/2/2
f 106/4/2 104/4/2 107/4/2
f 107/2/2 105/2/2 108/2/2
f 109/1/2 110/1/2 111/1/2
f 111/1/2 110/1/2 112/1/2
f 113/2/2 114/2/2 115/2/2
f 115/2/2 114/2/2 116/2/2
f 117/1/2 118/1/2 119/1/2
f 119/1/2 118/1/2 120/1/2
f 121/1/2 122/1/2 123/1/2
f 123/1/2 122/1/2 124/1/2
f 125/5/2 126/5/2 127/5/2
f 127/5/2 126/5/2 128/5/2
f 128/5/2 126/5/2 129/5/2
f 129/5/2 126/5/2 130/5/2
f 129/3/2 130/3/2 131/3/2
f 131/3/2 130/3/2 132/3/2
f 131/4/2 132/4/2 133/4/2
f 132/3/2 130/3/2 134/3/2
f 133/4/2 132/4/2 134/4/2
f 133/3/2 134/3/2 135/3/2
f 134/3/2 130/3/2 135/3/2
f 135/3/2 130/3/2 136/3/2
f 133/3/2 135/3/2 137/3/2
f 135/4/2 136/4/2 138/4/2
f 137/3/2 135/3/2 138/3/2
f 137/1/2 138/1/2 139/1/2
f 139/1/2 138/1/2 140/1/2
f 139/4/2 140/4/2 141/4/2
f 140/1/2 138/1/2 141/1/2
f 138/4/2 136/4/2 142/4/2
f 141/1/2 138/1/2 142/1/2
f 142/4/2 136/4/2 143/4/2
f 139/4/2 141/4/2 144/4/2
f 141/4/2 142/4/2 144/4/2
f 142/1/2 143/1/2 145/1/2
f 144/4/2 142/4/2 145/4/2
f 145/1/2 143/1/2 146/1/2
f 137/1/2 139/1/2 147/1/2
f 139/4/2 144/4/2 148/4/2
f 147/1/2 139/1/2 148/1/2
f 144/1/2 145/1/2 149/1/2
f 148/4/2 144/4/2 149/4/2
f 145/4/2 146/4/2 150/4/2
f 149/1/2 145/1/2 150/1/2
f 150/4/2 146/4/2 151/4/2
f 148/1/2 149/1/2 152/1/2
f 150/1/2 151/1/2 152/1/2
f 149/1/2 150/1/2 152/1/2
f 152/1/2 151/1/2 153/1/2
f 153/1/2 151/1/2 154/1/2
f 154/1/2 151/1/2 155/1/2
f 155/1/2 151/1/2 156/1/2
f 156/1/2 151/1/2 157/1/2
f 158/2/2 159/2/2 160/2/2
f 160/2/2 159/2/2 161/2/2
f 162/1/2 163/1/2 165/1/2
f 164/1/2 165/1/2 166/1/2
f 165/1/2 163/1/2 167/1/2
f 166/1/2 165/1/2 167/1/2
f 168/2/2 169/2/2 172/2/2
f 169/4/2 170/4/2 172/4/2
f 172/4/2 170/4/2 173/4/2
f 170/1/2 171/1/2 174/1/2
f 173/4/2 170/4/2 174/4/2
f 174/1/2 171/1/2 175/1/2
f 172/2/2 173/2/2 178/2/2
f 168/2/2 172/2/2 178/2/2
f 177/2/2 178/2/2 179/2/2
f 175/1/2 176/1/2 180/1/2
f 179/2/2 178/2/2 180/2/2
f 174/1/2 175/1/2 180/1/2
f 178/2/2 173/2/2 180/2/2
f 173/1/2 174/1/2 180/1/2
f 180/1/2 176/1/2 181/1/2
f 184/4/3 183/4/3 182/4/3
f 185/4/3 183/4/3 184/4/3
f 188/4/3 187/4/3 186/4/3
f 189/4/3 187/4/3 188/4/3
f 190/2/3 185/2/3 184/2/3
f 191/2/3 185/2/3 190/2/3
f 196/2/3 193/2/3 192/2/3
f 197/2/3 193/2/3 196/2/3
f 198/2/3 195/2/3 194/2/3
f 199/2/3 195/2/3 198/2/3
f 203/2/3 201/2/3 200/2/3
f 203/4/3 202/4/3 201/4/3
f 204/4/3 202/4/3 203/4/3
f 205/2/3 203/2/3 200/2/3
f 205/2/3 204/2/3 203/2/3
f 206/2/3 204/2/3 205/2/3
f 207/2/3 204/2/3 206/2/3
f 208/2/3 204/2/3 207/2/3
f 212/2/3 210/2/3 209/2/3
f 213/2/3 212/2/3 211/2/3
f 214/2/3 210/2/3 212/2/3
f 214/2/3 212/2/3 213/2/3
f 217/1/3 216/1/3 215/1/3
f 218/1/3 216/1/3 217/1/3
f 221/1/3 220/1/3 219/1/3
f 222/1/3 220/1/3 221/1/3
f 225/5/3 224/5/3 223/5/3
f 226/5/3 224/5/3 225/5/3
f 229/5/3 228/5/3 227/5/3
f 230/5/3 228/5/3 229/5/3
f 236/3/3 233/3/3 232/3/3
f 236/1/3 235/1/3 234/1/3
f 236/1/3 234/1/3 233/1/3
f 237/1/3 235/1/3 236/1/3
f 238/1/3 235/1/3 237/1/3
f 239/1/3 235/1/3 238/1/3
f 240/1/3 235/1/3 239/1/3
f 242/3/3 236/3/3 232/3/3
f 242/4/3 237/4/3 236/4/3
f 243/1/3 238/1/3 237/1/3
f 243/4/3 237/4/3 242/4/3
f 244/1/3 241/1/3 240/1/3
f 244/1/3 240/1/3 239/1/3
f 244/4/3 239/4/3 238/4/3
f 245/1/3 241/1/3 244/1/3
f 246/1/3 241/1/3 245/1/3
f 248/1/3 238/1/3 243/1/3
f 248/1/3 243/1/3 242/1/3
f 249/4/3 244/4/3 238/4/3
f 249/1/3 238/1/3 248/1/3
f 249/4/3 245/4/3 244/4/3
f 250/4/3 245/4/3 249/4/3
f 251/4/3 245/4/3 250/4/3
f 252/1/3 247/1/3 246/1/3
f 252/4/3 245/4/3 251/4/3
f 252/1/3 246/1/3 245/1/3
f 255/1/3 248/1/3 242/1/3
f 255/4/3 249/4/3 248/4/3
f 256/1/3 250/1/3 249/1/3
f 256/4/3 249/4/3 255/4/3
f 257/4/3 251/4/3 250/4/3
f 257/1/3 250/1/3 256/1/3
f 258/1/3 252/1/3 251/1/3
f 258/4/3 251/4/3 257/4/3
f 259/2/3 254/2/3 253/2/3
f 260/2/3 254/2/3 259/2/3
f 261/2/3 254/2/3 260/2/3
f 262/2/3 254/2/3 261/2/3
f 263/5/3 232/5/3 231/5/3
f 264/3/3 242/3/3 232/3/3
f 264/5/3 232/5/3 263/5/3
f 265/3/3 242/3/3 264/3/3
f 266/2/3 261/2/3 260/2/3
f 266/5/3 262/5/3 261/5/3
f 267/2/3 254/2/3 262/2/3
f 267/5/3 262/5/3 266/5/3
f 270/3/3 242/3/3 265/3/3
f 271/1/3 256/1/3 255/1/3
f 271/1/3 252/1/3 258/1/3
f 271/1/3 247/1/3 252/1/3
f 271/1/3 257/1/3 256/1/3
f 271/1/3 258/1/3 257/1/3
f 272/1/3 247/1/3 271/1/3
f 273/2/3 259/2/3 253/2/3
f 274/4/3 260/4/3 259/4/3
f 274/2/3 259/2/3 273/2/3
f 275/2/3 266/2/3 260/2/3
f 275/2/3 267/2/3 266/2/3
f 276/2/3 254/2/3 267/2/3
f 276/2/3 267/2/3 275/2/3
f 277/3/3 270/3/3 269/3/3
f 278/3/3 270/3/3 277/3/3
f 279/1/3 271/1/3 255/1/3
f 280/4/3 272/4/3 271/4/3
f 280/1/3 271/1/3 279/1/3
f 281/4/3 272/4/3 280/4/3
f 282/4/3 272/4/3 281/4/3
f 283/4/3 274/4/3 273/4/3
f 284/4/3 260/4/3 274/4/3
f 284/4/3 274/4/3 283/4/3
f 284/2/3 275/2/3 260/2/3
f 285/5/3 276/5/3 275/5/3
f 285/2/3 275/2/3 284/2/3
f 286/2/3 254/2/3 276/2/3
f 286/5/3 276/5/3 285/5/3
f 287/3/3 277/3/3 269/3/3
f 288/4/3 278/4/3 277/4/3
f 288/3/3 277/3/3 287/3/3
f 289/4/3 278/4/3 288/4/3
f 290/3/3 270/3/3 278/3/3
f 290/4/3 278/4/3 289/4/3
f 291/4/3 281/4/3 280/4/3
f 291/1/3 279/1/3 255/1/3
f 291/4/3 280/4/3 279/4/3
f 292/1/3 282/1/3 281/1/3
f 292/4/3 281/4/3 291/4/3
f 293/2/3 285/2/3 284/2/3
f 293/2/3 284/2/3 283/2/3
f 293/2/3 286/2/3 285/2/3
f 294/2/3 254/2/3 286/2/3
f 294/2/3 286/2/3 293/2/3
f 295/4/3 289/4/3 288/4/3
f 295/3/3 287/3/3 269/3/3
f 295/4/3 288/4/3 287/4/3
f 296/4/3 289/4/3 295/4/3
f 297/3/3 290/3/3 289/3/3
f 297/4/3 289/4/3 296/4/3
f 298/3/3 270/3/3 290/3/3
f 298/3/3 290/3/3 297/3/3
f 299/1/3 282/1/3 292/1/3
f 299/1/3 292/1/3 291/1/3
f 300/1/3 282/1/3 299/1/3
f 301/4/3 297/4/3 296/4/3
f 301/3/3 296/3/3 295/3/3
f 301/4/3 298/4/3 297/4/3
f 302/4/3 298/4/3 301/4/3
f 303/1/3 299/1/3 291/1/3
f 304/1/3 299/1/3 303/1/3
f 305/5/3 269/5/3 268/5/3
f 306/3/3 295/3/3 269/3/3
f 306/5/3 269/5/3 305/5/3
f 306/3/3 301/3/3 295/3/3
f 306/3/3 302/3/3 301/3/3
f 307/4/3 298/4/3 302/4/3
f 307/3/3 302/3/3 306/3/3
f 308/3/3 270/3/3 298/3/3
f 308/4/3 298/4/3 307/4/3
f 309/1/3 255/1/3 242/1/3
f 309/3/3 270/3/3 308/3/3
f 309/3/3 242/3/3 270/3/3
f 309/1/3 303/1/3 291/1/3
f 309/1/3 291/1/3 255/1/3
f 310/1/3 303/1/3 309/1/3
f 311/1/3 303/1/3 310/1/3
f 314/1/3 313/1/3 312/1/3
f 316/1/3 314/1/3 312/1/3
f 317/2/3 315/2/3 314/2/3
f 317/1/3 314/1/3 316/1/3
f 318/2/3 315/2/3 317/2/3
f 319/4/3 317/4/3 316/4/3
f 319/4/3 318/4/3 317/4/3
f 320/4/3 318/4/3 319/4/3
f 321/4/3 318/4/3 320/4/3
f 322/1/3 320/1/3 319/1/3
f 323/1/3 320/1/3 322/1/3
f 324/1/4 325/1/4 326/1/4
f 326/1/4 325/1/4 327/1/4
f 328/1/4 329/1/4 330/1/4
f 330/1/4 329/1/4 331/1/4
f 332/1/4 333/1/4 334/1/4
f 334/1/4 333/1/4 335/1/4
f 332/1/4 334/1/4 336/1/4
f 336/1/4 334/1/4 337/1/4
f 338/1/4 339/1/4 340/1/4
f 338/1/4 340/1/4 342/1/4
f 340/1/4 341/1/4 342/1/4
f 342/1/4 341/1/4 343/1/4
f 344/1/4 345/1/4 346/1/4
f 346/1/4 345/1/4 347/1/4
f 348/1/4 349/1/4 350/1/4
f 348/1/4 350/1/4 352/1/4
f 350/2/4 351/2/4 352/2/4
f 352/2/4 351/2/4 353/2/4
f 348/1/4 352/1/4 354/1/4
f 354/1/4 352/1/4 355/1/4
f 356/1/4 357/1/4 358/1/4
f 358/1/4 357/1/4 359/1/4
f 362/1/4 363/1/4 364/1/4
f 364/1/4 365/1/4 366/1/4
f 360/5/4 361/5/4 370/5/4
f 361/3/4 362/3/4 371/3/4
f 370/5/4 361/5/4 371/5/4
f 371/3/4 362/3/4 372/3/4
f 372/3/4 362/3/4 375/3/4
f 368/2/4 369/2/4 376/2/4
f 376/2/4 369/2/4 377/2/4
f 364/1/4 366/1/4 378/1/4
f 366/1/4 367/1/4 378/1/4
f 378/1/4 367/1/4 379/1/4
f 374/3/4 375/3/4 380/3/4
f 375/3/4 362/3/4 380/3/4
f 362/1/4 364/1/4 381/1/4
f 380/3/4 362/3/4 381/3/4
f 364/1/4 378/1/4 381/1/4
f 381/1/4 378/1/4 382/1/4
f 382/1/4 378/1/4 383/1/4
f 383/1/4 378/1/4 384/1/4
f 384/1/4 378/1/4 385/1/4
f 385/1/4 378/1/4 386/1/4
f 373/5/4 374/5/4 387/5/4
f 374/3/4 380/3/4 388/3/4
f 387/5/4 374/5/4 388/5/4
f 380/4/4 381/4/4 389/4/4
f 388/3/4 380/3/4 389/3/4
f 381/4/4 382/4/4 389/4/4
f 382/1/4 383/1/4 390/1/4
f 389/4/4 382/4/4 390/4/4
f 383/4/4 384/4/4 391/4/4
f 390/1/4 383/1/4 391/1/4
f 384/1/4 385/1/4 392/1/4
f 391/4/4 384/4/4 392/4/4
f 392/1/4 385/1/4 393/1/4
f 398/5/5 395/5/5 394/5/5
f 399/5/5 395/5/5 398/5/5
f 400/5/5 397/5/5 396/5/5
f 401/5/5 397/5/5 400/5/5
f 404/3/5 403/3/5 402/3/5
f 405/3/5 403/3/5 404/3/5
f 411/4/5 407/4/5 406/4/5
f 412/4/5 407/4/5 411/4/5
f 413/2/5 409/2/5 408/2/5
f 415/2/5 413/2/5 408/2/5
f 415/2/5 414/2/5 413/2/5
f 416/2/5 414/2/5 415/2/5
f 417/2/5 415/2/5 408/2/5
f 418/4/5 416/4/5 415/4/5
f 418/2/5 415/2/5 417/2/5
f 419/2/5 412/2/5 411/2/5
f 419/2/5 411/2/5 410/2/5
f 420/2/5 412/2/5 419/2/5
f 421/4/5 418/4/5 417/4/5
f 422/4/5 416/4/5 418/4/5
f 422/4/5 418/4/5 421/4/5
f 423/1/5 420/1/5 419/1/5
f 424/1/5 422/1/5 421/1/5
f 425/1/5 423/1/5 419/1/5
f 426/1/5 423/1/5 425/1/5
f 427/1/5 422/1/5 424/1/5
f 428/1/5 422/1/5 427/1/5
f 433/1/5 430/1/5 429/1/5
f 434/1/5 430/1/5 433/1/5
f 435/1/5 432/1/5 431/1/5
f 436/1/5 432/1/5 435/1/5
f 442/4/5 438/4/5 437/4/5
f 443/2/5 439/2/5 438/2/5
f 443/4/5 438/4/5 442/4/5
f 444/2/5 439/2/5 443/2/5
f 445/2/5 441/2/5 440/2/5
f 446/2/5 441/2/5 445/2/5
f 451/1/5 448/1/5 447/1/5
f 452/1/5 448/1/5 451/1/5
f 453/1/5 450/1/5 449/1/5
f 454/1/5 450/1/5 453/1/5
f 459/2/5 456/2/5 455/2/5
f 460/4/5 457/4/5 456/4/5
f 460/2/5 456/2/5 459/2/5
f 461/2/5 458/2/5 457/2/5
f 461/4/5 457/4/5 460/4/5
f 462/2/5 458/2/5 461/2/5
f 463/2/5 459/2/5 455/2/5
f 464/2/5 458/2/5 462/2/5
f 465/2/5 463/2/5 455/2/5
f 465/2/5 464/2/5 463/2/5
f 466/2/5 458/2/5 464/2/5
f 466/2/5 464/2/5 465/2/5
f 467/5/6 468/5/6 471/5/6
f 471/5/6 468/5/6 472/5/6
f 469/5/6 470/5/6 473/5/6
f 473/5/6 470/5/6 474/5/6
f 475/4/6 476/4/6 479/4/6
f 479/4/6 476/4/6 480/4/6
f 477/2/6 478/2/6 481/2/6
f 481/2/6 478/2/6 482/2/6
f 483/4/6 484/4/6 488/4/6
f 484/2/6 485/2/6 489/2/6
f 488/4/6 484/4/6 489/4/6
f 488/2/6 489/2/6 490/2/6
f 489/2/6 485/2/6 491/2/6
f 490/2/6 489/2/6 491/2/6
f 491/2/6 485/2/6 492/2/6
f 486/2/6 487/2/6 493/2/6
f 493/2/6 487/2/6 494/2/6
f 494/2/6 487/2/6 495/2/6
f 490/1/6 491/1/6 496/1/6
f 496/1/6 491/1/6 497/1/6
f 494/1/6 495/1/6 498/1/6
f 498/1/6 495/1/6 499/1/6
f 500/1/6 501/1/6 504/1/6
f 502/1/6 503/1/6 507/1/6
f 504/1/6 505/1/6 508/1/6
f 500/1/6 504/1/6 508/1/6
f 508/1/6 505/1/6 509/1/6
f 506/1/6 507/1/6 510/1/6
f 507/1/6 503/1/6 510/1/6
f 510/1/6 503/1/6 511/1/6
f 509/1/6 505/1/6 512/1/6
f 512/1/6 505/1/6 513/1/6
f 506/1/6 510/1/6 514/1/6
f 514/1/6 510/1/6 515/1/6
f 516/1/6 517/1/6 520/1/6
f 520/1/6 517/1/6 521/1/6
f 518/1/6 519/1/6 522/1/6
f 522/1/6 519/1/6 523/1/6
f 524/1/6 525/1/6 528/1/6
f 525/4/6 526/4/6 529/4/6
f 528/1/6 525/1/6 529/1/6
f 526/1/6 527/1/6 530/1/6
f 529/4/6 526/4/6 530/4/6
f 530/1/6 527/1/6 531/1/6
f 524/1/6 528/1/6 532/1/6
f 531/1/6 527/1/6 533/1/6
f 524/1/6 532/1/6 534/1/6
f 532/1/6 533/1/6 534/1/6
f 533/1/6 527/1/6 535/1/6
f 534/1/6 533/1/6 535/1/6
f 538/1/6 539/1/6 540/1/6
f 536/1/6 537/1/6 541/1/6
f 541/1/6 537/1/6 542/1/6
f 540/1/6 539/1/6 543/1/6
f 543/1/6 539/1/6 544/1/6
f 545/2/6 546/2/6 547/2/6
f 547/2/6 546/2/6 548/2/6
