# MagicaVoxel @ Ephtracy

# group
o 

# material
mtllib weapon_zombie.mtl
usemtl palette

# normals
vn -1 0 0
vn 1 0 0
vn 0 0 1
vn 0 0 -1
vn 0 -1 0
vn 0 1 0

# texcoords
vt 0.537109 0.5
vt 0.841797 0.5
vt 0.857422 0.5
vt 0.869141 0.5
vt 0.912109 0.5
vt 0.966797 0.5
vt 0.994141 0.5

# verts
v -0.9 1.3 0.5
v -0.9 1.3 0.4
v -0.9 1.3 0
v -0.9 1.3 -0.5
v -0.9 1.4 0.4
v -0.9 1.4 0.3
v -0.9 1.4 -0.5
v -0.9 1.4 -0.6
v -0.9 1.6 0.5
v -0.9 1.6 0.3
v -0.9 1.6 0
v -0.9 1.6 -0.6
v -0.8 1.5 -0.6
v -0.8 1.5 -0.7
v -0.8 1.6 0.7
v -0.8 1.6 0.5
v -0.8 1.6 0.4
v -0.8 1.6 0
v -0.8 1.6 -0.6
v -0.8 1.7 0
v -0.8 1.7 -0.7
v -0.8 1.9 0.7
v -0.8 1.9 0.6
v -0.8 1.9 0.5
v -0.8 2 0.5
v -0.8 2 0.4
v -0.8 2.1 0.6
v -0.8 2.1 0.5
v -0.8 2.2 0.5
v -0.8 2.2 0.4
v -0.6 0 -0.1
v -0.6 0 -0.8
v -0.6 0.1 -0.1
v -0.6 0.1 -0.2
v -0.6 0.2 -0.2
v -0.6 0.2 -0.8
v -0.6 0.9 -0.2
v -0.6 0.9 -0.8
v -0.6 1.3 -0.2
v -0.6 1.3 -0.5
v -0.6 1.4 -0.5
v -0.6 1.4 -0.6
v -0.6 1.5 -0.6
v -0.6 1.5 -0.7
v -0.6 1.7 -0.7
v -0.6 1.7 -0.8
v -0.5 1.7 -0.2
v -0.5 1.7 -0.8
v -0.5 1.8 -0.2
v -0.5 1.8 -0.8
v -0.4 1.8 -0.2
v -0.4 1.8 -0.8
v -0.4 1.9 -0.2
v -0.4 1.9 -0.8
v -0.3 1.9 -0.3
v -0.3 1.9 -0.7
v -0.3 2 -0.3
v -0.3 2 -0.7
v -0.3 2.1 -0.2
v -0.3 2.1 -0.8
v -0.3 2.7 -0.2
v -0.3 2.7 -0.8
v -0.2 2 -0.3
v -0.2 2 -0.7
v -0.2 2.1 -0.3
v -0.2 2.1 -0.7
v 0.1 0 -0.1
v 0.1 0 -0.8
v 0.1 0.1 -0.1
v 0.1 0.1 -0.2
v 0.1 0.2 -0.2
v 0.1 0.2 -0.8
v 0.1 0.8 -0.2
v 0.1 0.8 -0.8
v 0.6 1.3 0.5
v 0.6 1.3 0.1
v 0.6 1.3 -0.1
v 0.6 1.3 -0.2
v 0.6 1.4 0.5
v 0.6 1.4 0.4
v 0.6 1.4 0.1
v 0.6 1.4 0
v 0.6 1.4 -0.1
v 0.6 1.5 0.5
v 0.6 1.5 0.4
v 0.6 1.6 0.5
v 0.6 1.6 0
v 0.6 1.7 0
v 0.6 1.7 -0.2
v -0.7 1.3 0.5
v -0.7 1.3 0.4
v -0.7 1.5 0.5
v -0.7 1.5 0.4
v -0.7 1.6 0.7
v -0.7 1.6 0.5
v -0.7 1.6 0.4
v -0.7 1.9 0.7
v -0.7 1.9 0.6
v -0.7 1.9 0.5
v -0.7 2 0.5
v -0.7 2 0.4
v -0.7 2.1 0.6
v -0.7 2.1 0.5
v -0.7 2.2 0.5
v -0.7 2.2 0.4
v -0.6 1.3 0.4
v -0.6 1.3 0
v -0.6 1.3 -0.2
v -0.6 1.5 0.5
v -0.6 1.5 0.4
v -0.6 1.6 0.5
v -0.6 1.6 0
v -0.6 1.7 0
v -0.6 1.7 -0.2
v -0.1 0 -0.1
v -0.1 0 -0.8
v -0.1 0.1 -0.1
v -0.1 0.1 -0.2
v -0.1 0.2 -0.2
v -0.1 0.2 -0.8
v -0.1 0.8 -0.2
v -0.1 0.8 -0.8
v 0.2 2 -0.3
v 0.2 2 -0.4
v 0.2 2 -0.7
v 0.2 2.1 -0.3
v 0.2 2.1 -0.4
v 0.2 2.1 -0.7
v 0.3 1.9 -0.3
v 0.3 1.9 -0.7
v 0.3 2 -0.3
v 0.3 2 -0.7
v 0.3 2.1 -0.2
v 0.3 2.1 -0.8
v 0.3 2.7 -0.2
v 0.3 2.7 -0.8
v 0.4 1.8 -0.2
v 0.4 1.8 -0.8
v 0.4 1.9 -0.2
v 0.4 1.9 -0.8
v 0.5 1.7 -0.2
v 0.5 1.7 -0.8
v 0.5 1.8 -0.2
v 0.5 1.8 -0.8
v 0.6 0 -0.1
v 0.6 0 -0.8
v 0.6 0.1 -0.1
v 0.6 0.1 -0.2
v 0.6 0.2 -0.2
v 0.6 0.2 -0.8
v 0.6 0.5 -0.2
v 0.6 0.5 -0.3
v 0.6 0.6 -0.2
v 0.6 0.6 -0.3
v 0.6 0.8 -0.7
v 0.6 0.8 -0.8
v 0.6 0.9 -0.2
v 0.6 0.9 -0.7
v 0.6 1 -0.5
v 0.6 1 -0.6
v 0.6 1.1 -0.6
v 0.6 1.1 -0.7
v 0.6 1.1 -0.8
v 0.6 1.2 -0.6
v 0.6 1.2 -0.7
v 0.6 1.2 -0.8
v 0.6 1.3 -0.2
v 0.6 1.3 -0.5
v 0.6 1.3 -0.6
v 0.6 1.3 -0.7
v 0.6 1.3 -0.8
v 0.6 1.4 -0.5
v 0.6 1.4 -0.6
v 0.6 1.5 -0.6
v 0.6 1.5 -0.7
v 0.6 1.7 -0.7
v 0.6 1.7 -0.8
v 0.7 1.3 0.5
v 0.7 1.3 0.4
v 0.7 1.4 0.5
v 0.7 1.4 0.4
v 0.8 1.5 -0.6
v 0.8 1.5 -0.7
v 0.8 1.6 0
v 0.8 1.6 -0.6
v 0.8 1.7 0
v 0.8 1.7 -0.7
v 0.9 1.3 0.4
v 0.9 1.3 0.2
v 0.9 1.3 -0.1
v 0.9 1.3 -0.5
v 0.9 1.4 0.2
v 0.9 1.4 0
v 0.9 1.4 -0.1
v 0.9 1.4 -0.5
v 0.9 1.4 -0.6
v 0.9 1.5 0.5
v 0.9 1.5 0.4
v 0.9 1.6 0.5
v 0.9 1.6 0
v 0.9 1.6 -0.6
v -0.8 1.6 0.7
v -0.8 1.9 0.7
v -0.7 1.6 0.7
v -0.7 1.9 0.7
v -0.8 1.9 0.6
v -0.8 2.1 0.6
v -0.7 1.9 0.6
v -0.7 2.1 0.6
v -0.9 1.3 0.5
v -0.9 1.6 0.5
v -0.8 1.3 0.5
v -0.8 1.6 0.5
v -0.8 2.1 0.5
v -0.8 2.2 0.5
v -0.7 1.3 0.5
v -0.7 1.5 0.5
v -0.7 1.6 0.5
v -0.7 2.1 0.5
v -0.7 2.2 0.5
v -0.6 1.5 0.5
v -0.6 1.6 0.5
v 0.6 1.3 0.5
v 0.6 1.4 0.5
v 0.6 1.5 0.5
v 0.6 1.6 0.5
v 0.7 1.3 0.5
v 0.7 1.4 0.5
v 0.9 1.5 0.5
v 0.9 1.6 0.5
v -0.7 1.3 0.4
v -0.7 1.5 0.4
v -0.6 1.3 0.4
v -0.6 1.5 0.4
v 0.6 1.4 0.4
v 0.6 1.5 0.4
v 0.7 1.3 0.4
v 0.7 1.4 0.4
v 0.9 1.3 0.4
v 0.9 1.5 0.4
v -0.8 1.6 0
v -0.8 1.7 0
v -0.6 1.6 0
v -0.6 1.7 0
v 0.6 1.6 0
v 0.6 1.7 0
v 0.8 1.6 0
v 0.8 1.7 0
v -0.6 0 -0.1
v -0.6 0.1 -0.1
v -0.1 0 -0.1
v -0.1 0.1 -0.1
v 0.1 0 -0.1
v 0.1 0.1 -0.1
v 0.6 0 -0.1
v 0.6 0.1 -0.1
v -0.6 0.1 -0.2
v -0.6 0.2 -0.2
v -0.6 0.9 -0.2
v -0.6 1.3 -0.2
v -0.6 1.7 -0.2
v -0.5 0.9 -0.2
v -0.5 1 -0.2
v -0.5 1.1 -0.2
v -0.5 1.3 -0.2
v -0.5 1.7 -0.2
v -0.5 1.8 -0.2
v -0.4 0.9 -0.2
v -0.4 1 -0.2
v -0.4 1.3 -0.2
v -0.4 1.4 -0.2
v -0.4 1.8 -0.2
v -0.4 1.9 -0.2
v -0.3 1 -0.2
v -0.3 1.1 -0.2
v -0.3 1.2 -0.2
v -0.3 1.3 -0.2
v -0.3 1.4 -0.2
v -0.3 2.1 -0.2
v -0.3 2.7 -0.2
v -0.2 1 -0.2
v -0.2 1.1 -0.2
v -0.2 1.2 -0.2
v -0.2 1.3 -0.2
v -0.2 2.2 -0.2
v -0.2 2.3 -0.2
v -0.2 2.4 -0.2
v -0.2 2.5 -0.2
v -0.1 0.1 -0.2
v -0.1 0.2 -0.2
v -0.1 0.8 -0.2
v -0.1 2.4 -0.2
v -0.1 2.5 -0.2
v 0.1 0.1 -0.2
v 0.1 0.2 -0.2
v 0.1 0.8 -0.2
v 0.1 1.7 -0.2
v 0.1 1.9 -0.2
v 0.1 2.1 -0.2
v 0.1 2.2 -0.2
v 0.1 2.4 -0.2
v 0.1 2.5 -0.2
v 0.2 0.4 -0.2
v 0.2 0.6 -0.2
v 0.2 1.6 -0.2
v 0.2 1.7 -0.2
v 0.2 1.8 -0.2
v 0.2 1.9 -0.2
v 0.2 2.1 -0.2
v 0.2 2.3 -0.2
v 0.2 2.4 -0.2
v 0.2 2.5 -0.2
v 0.3 0.3 -0.2
v 0.3 0.4 -0.2
v 0.3 0.5 -0.2
v 0.3 0.6 -0.2
v 0.3 1.6 -0.2
v 0.3 1.8 -0.2
v 0.3 2.1 -0.2
v 0.3 2.7 -0.2
v 0.4 0.3 -0.2
v 0.4 0.4 -0.2
v 0.4 0.5 -0.2
v 0.4 0.6 -0.2
v 0.4 1.8 -0.2
v 0.4 1.9 -0.2
v 0.5 0.4 -0.2
v 0.5 0.5 -0.2
v 0.5 1.7 -0.2
v 0.5 1.8 -0.2
v 0.6 0.1 -0.2
v 0.6 0.2 -0.2
v 0.6 0.5 -0.2
v 0.6 0.6 -0.2
v 0.6 0.9 -0.2
v 0.6 1.3 -0.2
v 0.6 1.7 -0.2
v -0.3 1.9 -0.3
v -0.3 2 -0.3
v -0.2 2 -0.3
v -0.2 2.1 -0.3
v 0.1 1.9 -0.3
v 0.1 2 -0.3
v 0.1 2.1 -0.3
v 0.2 1.9 -0.3
v 0.2 2 -0.3
v 0.2 2.1 -0.3
v 0.3 1.9 -0.3
v 0.3 2 -0.3
v -0.8 1.6 0.4
v -0.8 2 0.4
v -0.8 2.2 0.4
v -0.7 1.6 0.4
v -0.7 2 0.4
v -0.7 2.2 0.4
v -0.9 1.3 -0.5
v -0.9 1.4 -0.5
v -0.6 1.3 -0.5
v -0.6 1.4 -0.5
v 0.6 1.3 -0.5
v 0.6 1.4 -0.5
v 0.9 1.3 -0.5
v 0.9 1.4 -0.5
v -0.9 1.4 -0.6
v -0.9 1.6 -0.6
v -0.8 1.5 -0.6
v -0.8 1.6 -0.6
v -0.6 1.4 -0.6
v -0.6 1.5 -0.6
v 0.6 1.4 -0.6
v 0.6 1.5 -0.6
v 0.8 1.5 -0.6
v 0.8 1.6 -0.6
v 0.9 1.4 -0.6
v 0.9 1.6 -0.6
v -0.8 1.5 -0.7
v -0.8 1.7 -0.7
v -0.6 1.5 -0.7
v -0.6 1.7 -0.7
v -0.3 1.9 -0.7
v -0.3 2 -0.7
v -0.2 2 -0.7
v -0.2 2.1 -0.7
v 0.2 2 -0.7
v 0.2 2.1 -0.7
v 0.3 1.9 -0.7
v 0.3 2 -0.7
v 0.6 1.5 -0.7
v 0.6 1.7 -0.7
v 0.8 1.5 -0.7
v 0.8 1.7 -0.7
v -0.6 0 -0.8
v -0.6 0.2 -0.8
v -0.6 0.9 -0.8
v -0.6 1.7 -0.8
v -0.5 1.7 -0.8
v -0.5 1.8 -0.8
v -0.4 1.8 -0.8
v -0.4 1.9 -0.8
v -0.3 2.1 -0.8
v -0.3 2.7 -0.8
v -0.1 0 -0.8
v -0.1 0.2 -0.8
v -0.1 0.8 -0.8
v 0.1 0 -0.8
v 0.1 0.2 -0.8
v 0.1 0.8 -0.8
v 0.3 2.1 -0.8
v 0.3 2.7 -0.8
v 0.4 1.8 -0.8
v 0.4 1.9 -0.8
v 0.5 0.8 -0.8
v 0.5 0.9 -0.8
v 0.5 1.1 -0.8
v 0.5 1.2 -0.8
v 0.5 1.3 -0.8
v 0.5 1.7 -0.8
v 0.5 1.8 -0.8
v 0.6 0 -0.8
v 0.6 0.2 -0.8
v 0.6 0.8 -0.8
v 0.6 1.1 -0.8
v 0.6 1.2 -0.8
v 0.6 1.3 -0.8
v 0.6 1.7 -0.8
v -0.6 0 -0.1
v -0.1 0 -0.1
v 0.1 0 -0.1
v 0.6 0 -0.1
v -0.6 0 -0.8
v -0.1 0 -0.8
v 0.1 0 -0.8
v 0.6 0 -0.8
v -0.1 0.8 -0.2
v 0.1 0.8 -0.2
v -0.1 0.8 -0.8
v 0.1 0.8 -0.8
v -0.9 1.3 0.5
v -0.8 1.3 0.5
v -0.7 1.3 0.5
v 0.6 1.3 0.5
v 0.7 1.3 0.5
v -0.9 1.3 0.4
v -0.8 1.3 0.4
v -0.7 1.3 0.4
v -0.6 1.3 0.4
v 0.7 1.3 0.4
v 0.9 1.3 0.4
v 0.7 1.3 0.2
v 0.9 1.3 0.2
v 0.6 1.3 0.1
v 0.7 1.3 0.1
v -0.9 1.3 0
v -0.6 1.3 0
v 0.6 1.3 -0.1
v 0.9 1.3 -0.1
v -0.6 1.3 -0.2
v 0.6 1.3 -0.2
v -0.9 1.3 -0.5
v -0.6 1.3 -0.5
v 0.6 1.3 -0.5
v 0.9 1.3 -0.5
v -0.9 1.4 -0.5
v -0.6 1.4 -0.5
v 0.6 1.4 -0.5
v 0.9 1.4 -0.5
v -0.9 1.4 -0.6
v -0.6 1.4 -0.6
v 0.6 1.4 -0.6
v 0.9 1.4 -0.6
v -0.7 1.5 0.5
v -0.6 1.5 0.5
v 0.6 1.5 0.5
v 0.9 1.5 0.5
v -0.7 1.5 0.4
v -0.6 1.5 0.4
v 0.6 1.5 0.4
v 0.9 1.5 0.4
v -0.8 1.5 -0.6
v -0.6 1.5 -0.6
v 0.6 1.5 -0.6
v 0.8 1.5 -0.6
v -0.8 1.5 -0.7
v -0.6 1.5 -0.7
v 0.6 1.5 -0.7
v 0.8 1.5 -0.7
v -0.8 1.6 0.7
v -0.7 1.6 0.7
v -0.8 1.6 0.5
v -0.7 1.6 0.5
v -0.3 2.1 -0.2
v 0.1 2.1 -0.2
v 0.2 2.1 -0.2
v 0.3 2.1 -0.2
v -0.2 2.1 -0.3
v 0.1 2.1 -0.3
v 0.2 2.1 -0.3
v 0.2 2.1 -0.4
v -0.2 2.1 -0.7
v 0.2 2.1 -0.7
v -0.3 2.1 -0.8
v 0.3 2.1 -0.8
v -0.6 0.1 -0.1
v -0.1 0.1 -0.1
v 0.1 0.1 -0.1
v 0.6 0.1 -0.1
v -0.6 0.1 -0.2
v -0.1 0.1 -0.2
v 0.1 0.1 -0.2
v 0.6 0.1 -0.2
v 0.6 1.4 0.5
v 0.7 1.4 0.5
v 0.6 1.4 0.4
v 0.7 1.4 0.4
v -0.9 1.6 0.5
v -0.8 1.6 0.5
v -0.7 1.6 0.5
v -0.6 1.6 0.5
v 0.6 1.6 0.5
v 0.9 1.6 0.5
v -0.8 1.6 0.4
v -0.7 1.6 0.4
v -0.9 1.6 0.3
v -0.8 1.6 0.3
v -0.9 1.6 0
v -0.8 1.6 0
v -0.6 1.6 0
v 0.6 1.6 0
v 0.8 1.6 0
v 0.9 1.6 0
v -0.9 1.6 -0.6
v -0.8 1.6 -0.6
v 0.8 1.6 -0.6
v 0.9 1.6 -0.6
v -0.8 1.7 0
v -0.6 1.7 0
v 0.6 1.7 0
v 0.8 1.7 0
v -0.6 1.7 -0.2
v -0.5 1.7 -0.2
v 0.5 1.7 -0.2
v 0.6 1.7 -0.2
v -0.8 1.7 -0.7
v -0.6 1.7 -0.7
v 0.6 1.7 -0.7
v 0.8 1.7 -0.7
v -0.6 1.7 -0.8
v -0.5 1.7 -0.8
v 0.5 1.7 -0.8
v 0.6 1.7 -0.8
v -0.5 1.8 -0.2
v -0.4 1.8 -0.2
v 0.4 1.8 -0.2
v 0.5 1.8 -0.2
v -0.5 1.8 -0.8
v -0.4 1.8 -0.8
v 0.4 1.8 -0.8
v 0.5 1.8 -0.8
v -0.8 1.9 0.7
v -0.7 1.9 0.7
v -0.8 1.9 0.6
v -0.7 1.9 0.6
v -0.4 1.9 -0.2
v 0.1 1.9 -0.2
v 0.2 1.9 -0.2
v 0.4 1.9 -0.2
v -0.3 1.9 -0.3
v 0.1 1.9 -0.3
v 0.2 1.9 -0.3
v 0.3 1.9 -0.3
v -0.3 1.9 -0.7
v 0.3 1.9 -0.7
v -0.4 1.9 -0.8
v 0.4 1.9 -0.8
v -0.3 2 -0.3
v -0.2 2 -0.3
v 0.2 2 -0.3
v 0.3 2 -0.3
v 0.2 2 -0.4
v -0.3 2 -0.7
v -0.2 2 -0.7
v 0.2 2 -0.7
v 0.3 2 -0.7
v -0.8 2.1 0.6
v -0.7 2.1 0.6
v -0.8 2.1 0.5
v -0.7 2.1 0.5
v -0.8 2.2 0.5
v -0.7 2.2 0.5
v -0.8 2.2 0.4
v -0.7 2.2 0.4
v -0.3 2.7 -0.2
v 0.3 2.7 -0.2
v -0.3 2.7 -0.8
v 0.3 2.7 -0.8

# faces
f 5/3/1 2/3/1 1/3/1
f 5/4/1 3/4/1 2/4/1
f 6/4/1 3/4/1 5/4/1
f 7/7/1 4/7/1 3/7/1
f 9/3/1 5/3/1 1/3/1
f 9/3/1 6/3/1 5/3/1
f 10/4/1 3/4/1 6/4/1
f 10/3/1 6/3/1 9/3/1
f 11/7/1 8/7/1 7/7/1
f 11/4/1 3/4/1 10/4/1
f 11/7/1 7/7/1 3/7/1
f 12/7/1 8/7/1 11/7/1
f 19/7/1 14/7/1 13/7/1
f 20/7/1 19/7/1 18/7/1
f 21/7/1 14/7/1 19/7/1
f 21/7/1 19/7/1 20/7/1
f 22/6/1 17/6/1 16/6/1
f 22/6/1 16/6/1 15/6/1
f 23/6/1 17/6/1 22/6/1
f 24/6/1 17/6/1 23/6/1
f 25/6/1 17/6/1 24/6/1
f 25/3/1 24/3/1 23/3/1
f 26/6/1 17/6/1 25/6/1
f 27/3/1 25/3/1 23/3/1
f 27/3/1 26/3/1 25/3/1
f 28/3/1 26/3/1 27/3/1
f 29/3/1 26/3/1 28/3/1
f 30/3/1 26/3/1 29/3/1
f 33/7/1 32/7/1 31/7/1
f 34/7/1 32/7/1 33/7/1
f 35/7/1 32/7/1 34/7/1
f 36/7/1 32/7/1 35/7/1
f 37/5/1 36/5/1 35/5/1
f 38/5/1 36/5/1 37/5/1
f 39/7/1 38/7/1 37/7/1
f 40/7/1 38/7/1 39/7/1
f 41/7/1 38/7/1 40/7/1
f 42/7/1 38/7/1 41/7/1
f 43/7/1 38/7/1 42/7/1
f 44/7/1 38/7/1 43/7/1
f 45/7/1 38/7/1 44/7/1
f 46/7/1 38/7/1 45/7/1
f 49/7/1 48/7/1 47/7/1
f 50/7/1 48/7/1 49/7/1
f 53/7/1 52/7/1 51/7/1
f 54/7/1 52/7/1 53/7/1
f 57/7/1 56/7/1 55/7/1
f 58/7/1 56/7/1 57/7/1
f 61/4/1 60/4/1 59/4/1
f 62/4/1 60/4/1 61/4/1
f 65/4/1 64/4/1 63/4/1
f 66/4/1 64/4/1 65/4/1
f 69/7/1 68/7/1 67/7/1
f 70/7/1 68/7/1 69/7/1
f 71/7/1 68/7/1 70/7/1
f 72/7/1 68/7/1 71/7/1
f 73/5/1 72/5/1 71/5/1
f 74/5/1 72/5/1 73/5/1
f 79/4/1 76/4/1 75/4/1
f 80/4/1 76/4/1 79/4/1
f 81/3/1 77/3/1 76/3/1
f 81/4/1 76/4/1 80/4/1
f 82/3/1 77/3/1 81/3/1
f 83/7/1 78/7/1 77/7/1
f 83/3/1 77/3/1 82/3/1
f 85/4/1 82/4/1 81/4/1
f 85/4/1 81/4/1 80/4/1
f 86/4/1 85/4/1 84/4/1
f 87/7/1 83/7/1 82/7/1
f 87/4/1 85/4/1 86/4/1
f 87/4/1 82/4/1 85/4/1
f 88/7/1 83/7/1 87/7/1
f 89/7/1 78/7/1 83/7/1
f 89/7/1 83/7/1 88/7/1
f 90/1/2 91/1/2 92/1/2
f 92/1/2 91/1/2 93/1/2
f 94/6/2 95/6/2 97/6/2
f 95/6/2 96/6/2 97/6/2
f 97/6/2 96/6/2 98/6/2
f 98/6/2 96/6/2 99/6/2
f 99/6/2 96/6/2 100/6/2
f 98/3/2 99/3/2 100/3/2
f 100/6/2 96/6/2 101/6/2
f 98/3/2 100/3/2 102/3/2
f 100/3/2 101/3/2 102/3/2
f 102/3/2 101/3/2 103/3/2
f 103/3/2 101/3/2 104/3/2
f 104/3/2 101/3/2 105/3/2
f 106/4/2 107/4/2 110/4/2
f 109/4/2 110/4/2 111/4/2
f 107/7/2 108/7/2 112/7/2
f 111/4/2 110/4/2 112/4/2
f 110/4/2 107/4/2 112/4/2
f 112/7/2 108/7/2 113/7/2
f 113/7/2 108/7/2 114/7/2
f 115/7/2 116/7/2 117/7/2
f 117/7/2 116/7/2 118/7/2
f 118/7/2 116/7/2 119/7/2
f 119/7/2 116/7/2 120/7/2
f 119/5/2 120/5/2 121/5/2
f 121/5/2 120/5/2 122/5/2
f 123/3/2 124/3/2 126/3/2
f 124/4/2 125/4/2 127/4/2
f 126/3/2 124/3/2 127/3/2
f 127/4/2 125/4/2 128/4/2
f 129/7/2 130/7/2 131/7/2
f 131/7/2 130/7/2 132/7/2
f 133/4/2 134/4/2 135/4/2
f 135/4/2 134/4/2 136/4/2
f 137/7/2 138/7/2 139/7/2
f 139/7/2 138/7/2 140/7/2
f 141/7/2 142/7/2 143/7/2
f 143/7/2 142/7/2 144/7/2
f 145/7/2 146/7/2 147/7/2
f 147/7/2 146/7/2 148/7/2
f 148/7/2 146/7/2 149/7/2
f 149/7/2 146/7/2 150/7/2
f 149/5/2 150/5/2 151/5/2
f 151/5/2 150/5/2 152/5/2
f 151/3/2 152/3/2 153/3/2
f 152/5/2 150/5/2 154/5/2
f 153/3/2 152/3/2 154/3/2
f 153/5/2 154/5/2 155/5/2
f 154/5/2 150/5/2 155/5/2
f 155/5/2 150/5/2 156/5/2
f 153/5/2 155/5/2 157/5/2
f 155/3/2 156/3/2 158/3/2
f 157/5/2 155/5/2 158/5/2
f 157/7/2 158/7/2 159/7/2
f 159/7/2 158/7/2 160/7/2
f 159/3/2 160/3/2 161/3/2
f 160/7/2 158/7/2 161/7/2
f 158/3/2 156/3/2 162/3/2
f 161/7/2 158/7/2 162/7/2
f 162/3/2 156/3/2 163/3/2
f 159/3/2 161/3/2 164/3/2
f 161/3/2 162/3/2 164/3/2
f 162/7/2 163/7/2 165/7/2
f 164/3/2 162/3/2 165/3/2
f 165/7/2 163/7/2 166/7/2
f 157/7/2 159/7/2 167/7/2
f 159/3/2 164/3/2 168/3/2
f 167/7/2 159/7/2 168/7/2
f 164/7/2 165/7/2 169/7/2
f 168/3/2 164/3/2 169/3/2
f 165/3/2 166/3/2 170/3/2
f 169/7/2 165/7/2 170/7/2
f 170/3/2 166/3/2 171/3/2
f 168/7/2 169/7/2 172/7/2
f 170/7/2 171/7/2 172/7/2
f 169/7/2 170/7/2 172/7/2
f 172/7/2 171/7/2 173/7/2
f 173/7/2 171/7/2 174/7/2
f 174/7/2 171/7/2 175/7/2
f 175/7/2 171/7/2 176/7/2
f 176/7/2 171/7/2 177/7/2
f 178/4/2 179/4/2 180/4/2
f 180/4/2 179/4/2 181/4/2
f 182/7/2 183/7/2 185/7/2
f 184/7/2 185/7/2 186/7/2
f 185/7/2 183/7/2 187/7/2
f 186/7/2 185/7/2 187/7/2
f 188/4/2 189/4/2 192/4/2
f 189/3/2 190/3/2 192/3/2
f 192/3/2 190/3/2 193/3/2
f 190/7/2 191/7/2 194/7/2
f 193/3/2 190/3/2 194/3/2
f 194/7/2 191/7/2 195/7/2
f 192/4/2 193/4/2 198/4/2
f 188/4/2 192/4/2 198/4/2
f 197/4/2 198/4/2 199/4/2
f 195/7/2 196/7/2 200/7/2
f 199/4/2 198/4/2 200/4/2
f 194/7/2 195/7/2 200/7/2
f 198/4/2 193/4/2 200/4/2
f 193/7/2 194/7/2 200/7/2
f 200/7/2 196/7/2 201/7/2
f 204/6/3 203/6/3 202/6/3
f 205/6/3 203/6/3 204/6/3
f 208/3/3 207/3/3 206/3/3
f 209/3/3 207/3/3 208/3/3
f 212/3/3 211/3/3 210/3/3
f 213/3/3 211/3/3 212/3/3
f 216/1/3 213/1/3 212/1/3
f 217/1/3 213/1/3 216/1/3
f 218/1/3 213/1/3 217/1/3
f 219/3/3 215/3/3 214/3/3
f 220/3/3 215/3/3 219/3/3
f 221/4/3 218/4/3 217/4/3
f 222/4/3 218/4/3 221/4/3
f 227/4/3 224/4/3 223/4/3
f 228/4/3 224/4/3 227/4/3
f 229/4/3 226/4/3 225/4/3
f 230/4/3 226/4/3 229/4/3
f 233/4/3 232/4/3 231/4/3
f 234/4/3 232/4/3 233/4/3
f 238/4/3 236/4/3 235/4/3
f 239/4/3 238/4/3 237/4/3
f 240/4/3 236/4/3 238/4/3
f 240/4/3 238/4/3 239/4/3
f 243/7/3 242/7/3 241/7/3
f 244/7/3 242/7/3 243/7/3
f 247/7/3 246/7/3 245/7/3
f 248/7/3 246/7/3 247/7/3
f 251/7/3 250/7/3 249/7/3
f 252/7/3 250/7/3 251/7/3
f 255/7/3 254/7/3 253/7/3
f 256/7/3 254/7/3 255/7/3
f 262/5/3 259/5/3 258/5/3
f 262/7/3 261/7/3 260/7/3
f 262/7/3 260/7/3 259/7/3
f 263/7/3 261/7/3 262/7/3
f 264/7/3 261/7/3 263/7/3
f 265/7/3 261/7/3 264/7/3
f 266/7/3 261/7/3 265/7/3
f 268/5/3 262/5/3 258/5/3
f 268/3/3 263/3/3 262/3/3
f 269/7/3 264/7/3 263/7/3
f 269/3/3 263/3/3 268/3/3
f 270/7/3 267/7/3 266/7/3
f 270/7/3 266/7/3 265/7/3
f 270/3/3 265/3/3 264/3/3
f 271/7/3 267/7/3 270/7/3
f 272/7/3 267/7/3 271/7/3
f 274/7/3 264/7/3 269/7/3
f 274/7/3 269/7/3 268/7/3
f 275/3/3 270/3/3 264/3/3
f 275/7/3 264/7/3 274/7/3
f 275/3/3 271/3/3 270/3/3
f 276/3/3 271/3/3 275/3/3
f 277/3/3 271/3/3 276/3/3
f 278/7/3 273/7/3 272/7/3
f 278/3/3 271/3/3 277/3/3
f 278/7/3 272/7/3 271/7/3
f 281/7/3 274/7/3 268/7/3
f 281/3/3 275/3/3 274/3/3
f 282/7/3 276/7/3 275/7/3
f 282/3/3 275/3/3 281/3/3
f 283/3/3 277/3/3 276/3/3
f 283/7/3 276/7/3 282/7/3
f 284/7/3 278/7/3 277/7/3
f 284/3/3 277/3/3 283/3/3
f 285/4/3 280/4/3 279/4/3
f 286/4/3 280/4/3 285/4/3
f 287/4/3 280/4/3 286/4/3
f 288/4/3 280/4/3 287/4/3
f 289/7/3 258/7/3 257/7/3
f 290/5/3 268/5/3 258/5/3
f 290/7/3 258/7/3 289/7/3
f 291/5/3 268/5/3 290/5/3
f 292/4/3 287/4/3 286/4/3
f 292/2/3 288/2/3 287/2/3
f 293/4/3 280/4/3 288/4/3
f 293/2/3 288/2/3 292/2/3
f 296/5/3 268/5/3 291/5/3
f 297/7/3 282/7/3 281/7/3
f 297/7/3 278/7/3 284/7/3
f 297/7/3 273/7/3 278/7/3
f 297/7/3 283/7/3 282/7/3
f 297/7/3 284/7/3 283/7/3
f 298/7/3 273/7/3 297/7/3
f 299/4/3 285/4/3 279/4/3
f 300/3/3 286/3/3 285/3/3
f 300/4/3 285/4/3 299/4/3
f 301/4/3 292/4/3 286/4/3
f 301/4/3 293/4/3 292/4/3
f 302/4/3 280/4/3 293/4/3
f 302/4/3 293/4/3 301/4/3
f 303/5/3 296/5/3 295/5/3
f 304/5/3 296/5/3 303/5/3
f 305/7/3 297/7/3 281/7/3
f 306/3/3 298/3/3 297/3/3
f 306/7/3 297/7/3 305/7/3
f 307/3/3 298/3/3 306/3/3
f 308/3/3 298/3/3 307/3/3
f 309/3/3 300/3/3 299/3/3
f 310/3/3 286/3/3 300/3/3
f 310/3/3 300/3/3 309/3/3
f 310/4/3 301/4/3 286/4/3
f 311/2/3 302/2/3 301/2/3
f 311/4/3 301/4/3 310/4/3
f 312/4/3 280/4/3 302/4/3
f 312/2/3 302/2/3 311/2/3
f 313/5/3 303/5/3 295/5/3
f 314/3/3 304/3/3 303/3/3
f 314/5/3 303/5/3 313/5/3
f 315/3/3 304/3/3 314/3/3
f 316/5/3 296/5/3 304/5/3
f 316/3/3 304/3/3 315/3/3
f 317/3/3 307/3/3 306/3/3
f 317/7/3 305/7/3 281/7/3
f 317/3/3 306/3/3 305/3/3
f 318/7/3 308/7/3 307/7/3
f 318/3/3 307/3/3 317/3/3
f 319/4/3 311/4/3 310/4/3
f 319/4/3 310/4/3 309/4/3
f 319/4/3 312/4/3 311/4/3
f 320/4/3 280/4/3 312/4/3
f 320/4/3 312/4/3 319/4/3
f 321/3/3 315/3/3 314/3/3
f 321/5/3 313/5/3 295/5/3
f 321/3/3 314/3/3 313/3/3
f 322/3/3 315/3/3 321/3/3
f 323/5/3 316/5/3 315/5/3
f 323/3/3 315/3/3 322/3/3
f 324/5/3 296/5/3 316/5/3
f 324/5/3 316/5/3 323/5/3
f 325/7/3 308/7/3 318/7/3
f 325/7/3 318/7/3 317/7/3
f 326/7/3 308/7/3 325/7/3
f 327/3/3 323/3/3 322/3/3
f 327/5/3 322/5/3 321/5/3
f 327/3/3 324/3/3 323/3/3
f 328/3/3 324/3/3 327/3/3
f 329/7/3 325/7/3 317/7/3
f 330/7/3 325/7/3 329/7/3
f 331/7/3 295/7/3 294/7/3
f 332/5/3 321/5/3 295/5/3
f 332/7/3 295/7/3 331/7/3
f 332/5/3 327/5/3 321/5/3
f 332/5/3 328/5/3 327/5/3
f 333/3/3 324/3/3 328/3/3
f 333/5/3 328/5/3 332/5/3
f 334/5/3 296/5/3 324/5/3
f 334/3/3 324/3/3 333/3/3
f 335/7/3 281/7/3 268/7/3
f 335/5/3 296/5/3 334/5/3
f 335/5/3 268/5/3 296/5/3
f 335/7/3 329/7/3 317/7/3
f 335/7/3 317/7/3 281/7/3
f 336/7/3 329/7/3 335/7/3
f 337/7/3 329/7/3 336/7/3
f 340/7/3 339/7/3 338/7/3
f 342/7/3 340/7/3 338/7/3
f 343/4/3 341/4/3 340/4/3
f 343/7/3 340/7/3 342/7/3
f 344/4/3 341/4/3 343/4/3
f 345/3/3 343/3/3 342/3/3
f 345/3/3 344/3/3 343/3/3
f 346/3/3 344/3/3 345/3/3
f 347/3/3 344/3/3 346/3/3
f 348/7/3 346/7/3 345/7/3
f 349/7/3 346/7/3 348/7/3
f 350/6/4 351/6/4 353/6/4
f 351/3/4 352/3/4 354/3/4
f 353/6/4 351/6/4 354/6/4
f 354/3/4 352/3/4 355/3/4
f 356/7/4 357/7/4 358/7/4
f 358/7/4 357/7/4 359/7/4
f 360/7/4 361/7/4 362/7/4
f 362/7/4 361/7/4 363/7/4
f 364/7/4 365/7/4 366/7/4
f 366/7/4 365/7/4 367/7/4
f 364/7/4 366/7/4 368/7/4
f 368/7/4 366/7/4 369/7/4
f 370/7/4 371/7/4 372/7/4
f 370/7/4 372/7/4 374/7/4
f 372/7/4 373/7/4 374/7/4
f 374/7/4 373/7/4 375/7/4
f 376/7/4 377/7/4 378/7/4
f 378/7/4 377/7/4 379/7/4
f 380/7/4 381/7/4 382/7/4
f 380/7/4 382/7/4 384/7/4
f 382/4/4 383/4/4 384/4/4
f 384/4/4 383/4/4 385/4/4
f 380/7/4 384/7/4 386/7/4
f 386/7/4 384/7/4 387/7/4
f 388/7/4 389/7/4 390/7/4
f 390/7/4 389/7/4 391/7/4
f 394/7/4 395/7/4 396/7/4
f 396/7/4 397/7/4 398/7/4
f 392/7/4 393/7/4 402/7/4
f 393/5/4 394/5/4 403/5/4
f 402/7/4 393/7/4 403/7/4
f 403/5/4 394/5/4 404/5/4
f 404/5/4 394/5/4 407/5/4
f 400/4/4 401/4/4 408/4/4
f 408/4/4 401/4/4 409/4/4
f 396/7/4 398/7/4 410/7/4
f 398/7/4 399/7/4 410/7/4
f 410/7/4 399/7/4 411/7/4
f 406/5/4 407/5/4 412/5/4
f 407/5/4 394/5/4 412/5/4
f 394/7/4 396/7/4 413/7/4
f 412/5/4 394/5/4 413/5/4
f 396/7/4 410/7/4 413/7/4
f 413/7/4 410/7/4 414/7/4
f 414/7/4 410/7/4 415/7/4
f 415/7/4 410/7/4 416/7/4
f 416/7/4 410/7/4 417/7/4
f 417/7/4 410/7/4 418/7/4
f 405/7/4 406/7/4 419/7/4
f 406/5/4 412/5/4 420/5/4
f 419/7/4 406/7/4 420/7/4
f 412/3/4 413/3/4 421/3/4
f 420/5/4 412/5/4 421/5/4
f 413/3/4 414/3/4 421/3/4
f 414/7/4 415/7/4 422/7/4
f 421/3/4 414/3/4 422/3/4
f 415/3/4 416/3/4 423/3/4
f 422/7/4 415/7/4 423/7/4
f 416/7/4 417/7/4 424/7/4
f 423/3/4 416/3/4 424/3/4
f 424/7/4 417/7/4 425/7/4
f 430/7/5 427/7/5 426/7/5
f 431/7/5 427/7/5 430/7/5
f 432/7/5 429/7/5 428/7/5
f 433/7/5 429/7/5 432/7/5
f 436/5/5 435/5/5 434/5/5
f 437/5/5 435/5/5 436/5/5
f 443/3/5 439/3/5 438/3/5
f 444/1/5 440/1/5 439/1/5
f 444/3/5 439/3/5 443/3/5
f 445/1/5 440/1/5 444/1/5
f 447/4/5 442/4/5 441/4/5
f 449/4/5 447/4/5 441/4/5
f 449/4/5 448/4/5 447/4/5
f 450/4/5 448/4/5 449/4/5
f 451/4/5 449/4/5 441/4/5
f 452/3/5 450/3/5 449/3/5
f 452/4/5 449/4/5 451/4/5
f 453/4/5 446/4/5 445/4/5
f 453/4/5 444/4/5 443/4/5
f 453/4/5 445/4/5 444/4/5
f 454/4/5 446/4/5 453/4/5
f 455/3/5 452/3/5 451/3/5
f 456/3/5 450/3/5 452/3/5
f 456/3/5 452/3/5 455/3/5
f 457/7/5 454/7/5 453/7/5
f 458/7/5 456/7/5 455/7/5
f 459/7/5 457/7/5 453/7/5
f 460/7/5 457/7/5 459/7/5
f 461/7/5 456/7/5 458/7/5
f 462/7/5 456/7/5 461/7/5
f 467/7/5 464/7/5 463/7/5
f 468/7/5 464/7/5 467/7/5
f 469/7/5 466/7/5 465/7/5
f 470/7/5 466/7/5 469/7/5
f 475/4/5 472/4/5 471/4/5
f 476/4/5 472/4/5 475/4/5
f 477/4/5 474/4/5 473/4/5
f 478/4/5 474/4/5 477/4/5
f 483/7/5 480/7/5 479/7/5
f 484/7/5 480/7/5 483/7/5
f 485/7/5 482/7/5 481/7/5
f 486/7/5 482/7/5 485/7/5
f 489/6/5 488/6/5 487/6/5
f 490/6/5 488/6/5 489/6/5
f 495/4/5 492/4/5 491/4/5
f 496/3/5 493/3/5 492/3/5
f 496/4/5 492/4/5 495/4/5
f 497/4/5 494/4/5 493/4/5
f 497/3/5 493/3/5 496/3/5
f 498/4/5 494/4/5 497/4/5
f 499/4/5 495/4/5 491/4/5
f 500/4/5 494/4/5 498/4/5
f 501/4/5 499/4/5 491/4/5
f 501/4/5 500/4/5 499/4/5
f 502/4/5 494/4/5 500/4/5
f 502/4/5 500/4/5 501/4/5
f 503/7/6 504/7/6 507/7/6
f 507/7/6 504/7/6 508/7/6
f 505/7/6 506/7/6 509/7/6
f 509/7/6 506/7/6 510/7/6
f 511/4/6 512/4/6 513/4/6
f 513/4/6 512/4/6 514/4/6
f 515/3/6 516/3/6 521/3/6
f 517/4/6 518/4/6 522/4/6
f 515/3/6 521/3/6 523/3/6
f 521/4/6 522/4/6 524/4/6
f 523/3/6 521/3/6 524/3/6
f 523/4/6 524/4/6 525/4/6
f 524/4/6 522/4/6 526/4/6
f 525/4/6 524/4/6 526/4/6
f 522/4/6 518/4/6 527/4/6
f 526/4/6 522/4/6 527/4/6
f 519/4/6 520/4/6 528/4/6
f 528/4/6 520/4/6 529/4/6
f 529/4/6 520/4/6 530/4/6
f 525/7/6 526/7/6 531/7/6
f 531/7/6 526/7/6 532/7/6
f 529/7/6 530/7/6 533/7/6
f 533/7/6 530/7/6 534/7/6
f 535/7/6 536/7/6 539/7/6
f 537/7/6 538/7/6 542/7/6
f 539/7/6 540/7/6 543/7/6
f 535/7/6 539/7/6 543/7/6
f 543/7/6 540/7/6 544/7/6
f 541/7/6 542/7/6 545/7/6
f 542/7/6 538/7/6 545/7/6
f 545/7/6 538/7/6 546/7/6
f 544/7/6 540/7/6 547/7/6
f 547/7/6 540/7/6 548/7/6
f 541/7/6 545/7/6 549/7/6
f 549/7/6 545/7/6 550/7/6
f 551/7/6 552/7/6 555/7/6
f 555/7/6 552/7/6 556/7/6
f 553/7/6 554/7/6 557/7/6
f 557/7/6 554/7/6 558/7/6
f 559/6/6 560/6/6 561/6/6
f 561/6/6 560/6/6 562/6/6
f 563/7/6 564/7/6 567/7/6
f 564/3/6 565/3/6 568/3/6
f 567/7/6 564/7/6 568/7/6
f 565/7/6 566/7/6 569/7/6
f 568/3/6 565/3/6 569/3/6
f 569/7/6 566/7/6 570/7/6
f 563/7/6 567/7/6 571/7/6
f 570/7/6 566/7/6 572/7/6
f 563/7/6 571/7/6 573/7/6
f 571/7/6 572/7/6 573/7/6
f 572/7/6 566/7/6 574/7/6
f 573/7/6 572/7/6 574/7/6
f 577/7/6 578/7/6 579/7/6
f 575/7/6 576/7/6 580/7/6
f 580/7/6 576/7/6 581/7/6
f 579/7/6 578/7/6 582/7/6
f 582/7/6 578/7/6 583/7/6
f 584/3/6 585/3/6 586/3/6
f 586/3/6 585/3/6 587/3/6
f 588/3/6 589/3/6 590/3/6
f 590/3/6 589/3/6 591/3/6
f 592/4/6 593/4/6 594/4/6
f 594/4/6 593/4/6 595/4/6
